<?xml version="1.0" encoding="UTF-8"?>
<svg id="Layer_1" data-name="Layer 1" xmlns="http://www.w3.org/2000/svg" viewBox="0 0 35.88 35.88">
  <defs>
    <style>
      .cls-1 {
        fill: #011b60;
      }
    </style>
  </defs>
  <path class="cls-1" d="m25.42,17.94c0,4.13-3.35,7.48-7.48,7.48s-7.48-3.35-7.48-7.48,3.35-7.48,7.48-7.48,7.48,3.35,7.48,7.48"/>
  <path class="cls-1" d="m0,29.9c0,3.3,2.68,5.98,5.98,5.98h23.92c3.3,0,5.98-2.68,5.98-5.98V5.98c0-3.3-2.68-5.98-5.98-5.98H5.98C2.68,0,0,2.68,0,5.98v23.92ZM29.9,2.99c1.66,0,2.99,1.35,2.99,2.99s-1.33,2.99-2.99,2.99-2.99-1.35-2.99-2.99,1.35-2.99,2.99-2.99Zm-11.96,4.49c5.77,0,10.47,4.69,10.47,10.47s-4.69,10.47-10.47,10.47-10.47-4.7-10.47-10.47,4.7-10.47,10.47-10.47h0Z"/>
</svg>