<?xml version="1.0" encoding="UTF-8"?>
<svg id="Layer_1" data-name="Layer 1" xmlns="http://www.w3.org/2000/svg" viewBox="0 0 224.57 224.56">
  <defs>
    <style>
      .cls-1, .cls-2 {
        fill: #fff;
      }

      .cls-2 {
        fill-rule: evenodd;
      }
    </style>
  </defs>
  <path class="cls-2" d="m185.52,0H39.06C17.52,0,0,17.51,0,39.05v146.45c0,21.53,17.52,39.05,39.06,39.05h146.46c21.53,0,39.05-17.52,39.05-39.05V39.06C224.57,17.51,207.05,0,185.52,0h0Zm24.4,185.5c0,13.46-10.94,24.41-24.4,24.41H39.06c-13.46,0-24.41-10.95-24.41-24.41V39.06c0-13.46,10.95-24.42,24.41-24.42h146.46c13.46,0,24.4,10.96,24.4,24.42v146.45Z"/>
  <path class="cls-1" d="m179.51,92.33c-4.31-5.7-12.1-6.81-17.52-7.09-6.54-.42-12.51-.14-19.47.42-.28-.83-.56-2.64-.28-6.4.97-11.12,2.22-19.33,3.2-25.86l.14-.56c1.11-7.09-2.78-13.07-9.45-14.88-6.26-1.67-14.46.56-17.52,7.93-.42.97-.83,2.22-1.39,3.75-3.89,10.29-12.65,33.79-26.84,42.27v-1.25c0-1.81-1.39-3.2-3.2-3.2h-33.37c-1.81,0-3.2,1.39-3.2,3.2v69.52c0,1.81,1.39,3.2,3.2,3.2h33.37c1.81,0,3.2-1.39,3.2-3.2v-.7c11.12,3.06,37.82,9.59,56.87,9.59,10.01,0,22.53,0,26-15.71,2.78-12.38,6.4-30.73,8.76-43.38,1.67-7.65.83-13.49-2.5-17.66h0Zm-5.56,16.27c-2.36,12.65-5.98,30.73-8.76,43.1-1.81,8.06-5.42,9.18-17.94,9.18-18.35,0-44.77-6.67-55.2-9.45-.97-.28-1.53-.97-1.67-1.95v-46.86c0-.83.42-1.67,1.11-1.95,18.63-8.62,28.64-35.32,33.37-48.11.56-1.39.97-2.64,1.39-3.48.97-2.22,3.34-3.34,5.7-3.34.7,0,1.39.14,1.95.28,1.95.56,4.03,1.95,3.48,5.7l-.14.56c-.97,6.67-2.36,14.88-3.34,26.42-.56,6.54.42,10.98,2.78,13.35,1.39,1.39,3.34,2.09,5.42,1.95,7.09-.7,12.79-.97,19.05-.56,5.98.42,9.73,1.67,11.54,3.89,1.95,2.22,2.36,5.98,1.25,11.26h0Z"/>
</svg>