<?xml version="1.0" encoding="UTF-8"?>
<svg id="Layer_1" data-name="Layer 1" xmlns="http://www.w3.org/2000/svg" xmlns:xlink="http://www.w3.org/1999/xlink" viewBox="0 0 55.27 55.27">
  <defs>
    <style>
      .cls-1 {
        fill: none;
      }

      .cls-2 {
        clip-path: url(#clippath);
      }

      .cls-3 {
        fill: #04227b;
      }

      .cls-4 {
        fill: #fff;
      }

      .cls-5 {
        fill: #d5564b;
      }

      .cls-6 {
        fill: #3e77a7;
      }

      .cls-7 {
        clip-path: url(#clippath-1);
      }

      .cls-8 {
        clip-path: url(#clippath-4);
      }

      .cls-9 {
        clip-path: url(#clippath-3);
      }

      .cls-10 {
        clip-path: url(#clippath-8);
      }

      .cls-11 {
        clip-path: url(#clippath-9);
      }

      .cls-12 {
        clip-path: url(#clippath-69);
      }

      .cls-13 {
        clip-path: url(#clippath-10);
      }

      .cls-14 {
        clip-path: url(#clippath-11);
      }

      .cls-15 {
        clip-path: url(#clippath-195);
      }

      .cls-16 {
        clip-path: url(#clippath-185);
      }
    </style>
    <clipPath id="clippath">
      <rect class="cls-1" x="-119.81" y="152.79" width="119.81" height="99.11"/>
    </clipPath>
    <clipPath id="clippath-1">
      <rect class="cls-1" x="-164.35" y="-229.22" width="373.23" height="527.54"/>
    </clipPath>
    <clipPath id="clippath-3">
      <rect class="cls-1" x="-164.35" y="-229.22" width="373.23" height="527.54"/>
    </clipPath>
    <clipPath id="clippath-4">
      <rect class="cls-1" x="-164.35" y="-229.22" width="373.23" height="527.54"/>
    </clipPath>
    <clipPath id="clippath-8">
      <rect class="cls-1" x="-164.35" y="-229.22" width="373.23" height="527.54"/>
    </clipPath>
    <clipPath id="clippath-9">
      <rect class="cls-1" x="-164.35" y="-229.22" width="373.23" height="527.54"/>
    </clipPath>
    <clipPath id="clippath-10">
      <rect class="cls-1" x="-164.35" y="-229.22" width="373.23" height="527.54"/>
    </clipPath>
    <clipPath id="clippath-11">
      <rect class="cls-1" x="-164.35" y="-229.22" width="373.23" height="527.54"/>
    </clipPath>
    <clipPath id="clippath-69">
      <rect class="cls-1" x="-164.35" y="-229.22" width="373.23" height="527.54"/>
    </clipPath>
    <clipPath id="clippath-185">
      <rect class="cls-1" x="-164.35" y="-229.22" width="373.23" height="527.54"/>
    </clipPath>
    <clipPath id="clippath-195">
      <rect class="cls-1" x="-164.35" y="-229.22" width="373.23" height="527.54"/>
    </clipPath>
    <clipPath id="clippath-285">
      <rect class="cls-1" x="-164.35" y="-229.22" width="373.23" height="527.54"/>
    </clipPath>
  </defs>
  <g class="cls-2">
    <g class="cls-7">
      <g class="cls-9">
        <g class="cls-8">
          <g class="cls-10">
            <path class="cls-3" d="m1.09,44.25h-11.28v9.02h-3.16v-9.02h-11.29v-2.56H1.09v2.56Zm-1.73-8.42l-.98,2.56c-2.11-.38-4.06-1.2-5.94-2.48-1.96-1.28-3.31-2.71-4.21-4.29-.68,1.65-1.96,3.01-3.76,4.29-1.88,1.2-3.99,2.03-6.24,2.48l-1.05-2.63c3.01-.68,5.34-1.8,7-3.46,1.58-1.58,2.41-3.46,2.41-5.64v-.53h3.31v.6c0,2.11.83,3.91,2.56,5.49,1.65,1.65,3.99,2.86,6.92,3.61Z"/>
          </g>
          <g class="cls-11">
            <path class="cls-3" d="m29.15,47.86H3.42v-2.56h5.27v-9.55h3.16v9.55h3.91v-9.55h3.08v9.55h10.31v2.56Zm-2.93-19.55l-.68,12.63h-2.93v-12.11H6.43v-2.56h17.98c1.28,0,1.96.68,1.81,2.03Z"/>
          </g>
          <g class="cls-13">
            <polygon class="cls-3" points="44.35 47.71 41.26 47.71 41.26 29.58 37.28 31.84 36.22 29.58 41.49 26.58 44.35 26.58 44.35 47.71"/>
          </g>
          <g class="cls-14">
            <path class="cls-3" d="m65.56,46.58h-4.14v6.84h-3.08v-6.84h-10.46v-2.48l10.53-17.52h3.01v17.29h4.14v2.71Zm-7.15-2.63v-12.03l-7.07,12.03h7.07Z"/>
          </g>
          <g class="cls-12">
            <g class="cls-16">
              <path class="cls-4" d="m5.23-14.63h16.4V-.42c3.91,2.71,8.8,4.74,12.49,5.79V-14.63h11.59v-12.48h-11.59v-32.11h-12.49V-27.11H.94l10.53-19.55,18.13-33.84h-14.14L2.07-55.53l-9.25,17.29S-2.6-24.4,5.23-14.63Z"/>
            </g>
            <g class="cls-15">
              <path class="cls-3" d="m111.46-48.39c-.6-1.73-1.35-3.31-2.18-4.74-2.33-3.99-5.12-6.77-6.7-8.12v14.21c0,14.14-11.51,25.64-25.65,25.64s-25.73-11.5-25.73-25.64v-4.14c-6.09,6.17-13.62,8.05-13.62,8.05-1.2.38-2.33.68-3.46.83v15.19h11.59v12.48h-11.59V5.37c6.47,2.18,13.47,3.38,20.69,3.38,21.59,0,40.7-10.6,52.44-26.92v-.08s.08-.08.08-.15c.23-.23.38-.45.53-.68.08-.15.15-.3.3-.38.53-.9,1.05-1.88,1.05-1.88,3.46-5.64,3.91-11.96,3.91-11.96,1.28-7.67-1.65-15.11-1.65-15.11Z"/>
            </g>
          </g>
        </g>
      </g>
    </g>
  </g>
  <g>
    <circle class="cls-4" cx="27.71" cy="27.72" r="27.56"/>
    <g>
      <path class="cls-6" d="m32.72,25.04c-.84,0-1.64.2-2.34.56-1.96,1-2.12,2.72-4.13,3.91-.94.55-2.03.87-3.19.87-1.74,0-3.32-.71-4.46-1.85-.64-.64-1.14-1.41-1.46-2.28-.02.28-.03.55-.03.84,0,5.98,4.85,10.82,10.82,10.82,3.78,0,9.18-2.75,9.87-6.86.05-.27.07-.56.07-.86,0-1.42-.58-2.71-1.51-3.64-.93-.93-2.22-1.51-3.64-1.51Z"/>
      <path class="cls-5" d="m23.06,29.45c1,0,1.93-.27,2.72-.74,1.92-1.13,1.88-2.76,4.17-3.93.83-.42,1.77-.66,2.76-.66,1.68,0,3.2.68,4.3,1.78.73.73,1.27,1.64,1.56,2.65.06-.46.09-.93.09-1.41,0-3.02-1.22-5.75-3.2-7.73-1.98-1.98-4.71-3.2-7.73-3.2-1.71,0-3.32.39-4.76,1.09-1.68.81-4.15,2.84-4.92,4.8h0c-.24.62-.37,1.28-.37,1.98,0,1.48.6,2.83,1.57,3.8.97.97,2.32,1.58,3.8,1.58Z"/>
      <rect x="7.9" y="17.02" width="10.85" height="1.39" transform="translate(-8.81 19.05) rotate(-56.49)"/>
      <rect x="3.26" y="14.03" width="10.86" height="1.39" transform="translate(-8.39 13.83) rotate(-56.48)"/>
      <rect x="5.54" y="15.68" width="10.85" height="1.39" transform="translate(-8.74 16.48) rotate(-56.48)"/>
      <rect x="8.71" y="33.93" width="1.39" height="4.35" transform="translate(-18.41 11.24) rotate(-33.59)"/>
      <rect x="8.16" y="34.73" width="1.39" height="10.85" transform="translate(-20.7 11.56) rotate(-33.51)"/>
      <rect x="12.8" y="31.74" width="1.39" height="10.85" transform="translate(-18.27 13.63) rotate(-33.51)"/>
      <rect x="12.13" y="38.76" width="1.39" height="4.35" transform="translate(-20.47 13.89) rotate(-33.52)"/>
      <rect x="43.59" y="35.51" width="4.73" height="1.39" transform="translate(-9.6 54.53) rotate(-56.48)"/>
      <rect x="45.79" y="36.94" width="4.92" height="1.39" transform="translate(-9.79 57.03) rotate(-56.43)"/>
      <rect x="41.2" y="33.93" width="4.85" height="1.39" transform="translate(-9.33 51.88) rotate(-56.48)"/>
      <rect x="42.6" y="42.05" width="4.54" height="1.39" transform="translate(-15.52 56.65) rotate(-56.58)"/>
      <rect x="40.21" y="40.62" width="4.73" height="1.39" transform="translate(-15.38 54.01) rotate(-56.49)"/>
      <rect x="37.94" y="39.03" width="4.61" height="1.39" transform="translate(-15.1 51.34) rotate(-56.48)"/>
      <rect x="43.86" y="11.05" width="1.39" height="10.85" transform="translate(-1.53 27.99) rotate(-34.32)"/>
      <rect x="44.28" y="9.91" width="1.39" height="4.8" transform="translate(.89 27.5) rotate(-34.32)"/>
      <rect x="47.73" y="15.04" width="1.39" height="4.66" transform="translate(-1.37 30.28) rotate(-34.27)"/>
      <rect x="39.73" y="13.08" width="1.39" height="4.73" transform="translate(-1.67 25.48) rotate(-34.32)"/>
      <rect x="43.2" y="18.14" width="1.39" height="4.73" transform="translate(-3.91 28.36) rotate(-34.37)"/>
      <path d="m27.63,0C12.4,0,0,12.4,0,27.64c0,7.38,2.87,14.32,8.09,19.54,5.22,5.22,12.16,8.1,19.54,8.1s14.32-2.88,19.54-8.1c5.22-5.22,8.09-12.16,8.09-19.54C55.27,12.4,42.87,0,27.63,0Zm18.87,46.51c-5.04,5.04-11.74,7.82-18.87,7.82s-13.83-2.78-18.87-7.82C3.72,41.46.95,34.76.95,27.64.95,12.92,12.92.95,27.64.95s26.69,11.97,26.69,26.69c0,7.13-2.78,13.83-7.82,18.87Z"/>
    </g>
  </g>
</svg>