<?xml version="1.0" encoding="UTF-8"?>
<svg id="Layer_1" data-name="Layer 1" xmlns="http://www.w3.org/2000/svg" xmlns:xlink="http://www.w3.org/1999/xlink" viewBox="0 0 529.66 488.9">
  <defs>
    <style>
      .cls-1 {
        fill: none;
      }

      .cls-2 {
        stroke: #001a64;
        stroke-linecap: round;
        stroke-linejoin: round;
        stroke-width: 11px;
      }

      .cls-2, .cls-3, .cls-4 {
        fill: #fff;
      }

      .cls-5 {
        fill: #001f80;
      }

      .cls-6 {
        fill: #001a64;
      }

      .cls-7 {
        fill: #e30e21;
      }

      .cls-8 {
        fill: #1f191a;
      }

      .cls-9 {
        fill: #444058;
      }

      .cls-4 {
        opacity: .62;
      }

      .cls-10 {
        clip-path: url(#clippath-408);
      }

      .cls-11 {
        clip-path: url(#clippath-407);
      }

      .cls-12 {
        clip-path: url(#clippath-406);
      }
    </style>
    <clipPath id="clippath">
      <rect class="cls-1" x="-324.29" y="90.81" width="119.81" height="99.11"/>
    </clipPath>
    <clipPath id="clippath-1">
      <rect class="cls-1" x="-368.82" y="-291.2" width="373.23" height="527.54"/>
    </clipPath>
    <clipPath id="clippath-3">
      <rect class="cls-1" x="-368.82" y="-291.2" width="373.23" height="527.54"/>
    </clipPath>
    <clipPath id="clippath-4">
      <rect class="cls-1" x="-368.82" y="-291.2" width="373.23" height="527.54"/>
    </clipPath>
    <clipPath id="clippath-69">
      <rect class="cls-1" x="-368.82" y="-291.2" width="373.23" height="527.54"/>
    </clipPath>
    <clipPath id="clippath-285">
      <rect class="cls-1" x="-368.82" y="-291.2" width="373.23" height="527.54"/>
    </clipPath>
    <clipPath id="clippath-406">
      <rect class="cls-1" y="7.04" width="507.93" height="481.86"/>
    </clipPath>
    <clipPath id="clippath-407">
      <path class="cls-1" d="m521.45,216.16l-328.69,68.95-33.88-161.51c-3.65-17.39,7.49-34.44,24.88-38.08L449.48,29.77c17.39-3.65,34.44,7.49,38.08,24.88l33.88,161.51Z"/>
    </clipPath>
    <clipPath id="clippath-408">
      <path class="cls-1" d="m371.91,405.46H37.98v-163.91c0-17.76,14.4-32.16,32.16-32.16h269.61c17.76,0,32.16,14.4,32.16,32.16v163.91Z"/>
    </clipPath>
  </defs>
  <g class="cls-12">
    <g>
      <path class="cls-9" d="m508.09,259.42l-285.48,59.89c-14.79,3.1-29.3-6.37-32.41-21.17l-36.51-174.02c-4.17-19.89,8.57-39.39,28.45-43.56L448.96,24.59c19.89-4.17,39.39,8.57,43.56,28.45l36.55,174.25c3.08,14.67-6.32,29.05-20.99,32.13Z"/>
      <g class="cls-11">
        <polygon class="cls-3" points="529.35 225.13 189.12 296.5 141.9 71.38 529.35 225.13"/>
        <polygon class="cls-3" points="141.9 71.38 482.13 0 529.35 225.13 141.9 71.38"/>
        <polygon class="cls-6" points="487.66 26.38 497.94 75.36 423.48 90.98 487.66 26.38"/>
        <polygon class="cls-6" points="440.66 8.7 442.54 8.31 360.44 95.35 346.41 28.47 440.66 8.7"/>
        <polygon class="cls-7" points="362.22 103.83 456.68 5.34 482.13 0 389.55 98.1 362.22 103.83"/>
        <polygon class="cls-7" points="501.1 90.43 351.24 121.87 332.27 31.44 291.75 39.94 310.72 130.37 161.81 161.61 171.1 205.88 320.01 174.64 338.98 265.06 379.5 256.56 360.53 166.14 510.38 134.7 501.1 90.43"/>
        <polygon class="cls-6" points="147.43 97.76 157.71 146.73 232.16 131.11 147.43 97.76"/>
        <polygon class="cls-6" points="183.36 62.68 182.42 62.87 291.99 106.77 278.56 42.71 183.36 62.68"/>
        <polygon class="cls-7" points="271.74 122.81 141.9 71.38 145.65 89.28 245.16 127.4 271.74 122.81"/>
        <polygon class="cls-7" points="399.51 173.7 529.35 225.13 525.6 207.23 426.84 167.96 399.51 173.7"/>
        <polygon class="cls-6" points="523.82 198.75 513.55 149.77 439.09 165.39 523.82 198.75"/>
        <polygon class="cls-6" points="488.83 233.63 489.77 233.43 380.2 189.55 393.64 253.6 488.83 233.63"/>
        <polygon class="cls-6" points="183.59 270.13 173.32 221.15 247.77 205.53 183.59 270.13"/>
        <polygon class="cls-6" points="230.59 287.8 229.65 288 311.95 201.9 325.78 267.83 230.59 287.8"/>
        <polygon class="cls-7" points="309.03 192.68 215.51 290.97 190.07 296.3 282.65 198.21 309.03 192.68"/>
      </g>
      <g>
        <circle class="cls-4" cx="337.84" cy="150.39" r="43.3" transform="translate(179.87 484.76) rotate(-88.71)"/>
        <path class="cls-7" d="m354.14,143.33l-26.67-10.48c-3.16-1.24-6.44,1.53-5.74,4.85,4.58,21.69,3.1,14.77,6.45,30.8.7,3.32,4.81,4.54,7.2,2.14l20.22-20.32c2.16-2.18,1.39-5.86-1.46-6.98Z"/>
      </g>
      <g>
        <path class="cls-3" d="m456.59,250.99c.6-.25,1.18-.46,1.83-.65l.61,2.92c-.67.08-1.29.13-1.94.14l-.45,2.41c.6.24,1.16.51,1.75.83l-1.63,2.5c-.54-.42-1.01-.82-1.47-1.27l-2.03,1.39c.25.6.46,1.18.65,1.83l-2.92.61c-.08-.67-.13-1.29-.14-1.94l-2.41-.45c-.24.6-.51,1.16-.83,1.75l-2.5-1.63c.42-.54.82-1.01,1.27-1.47l-1.39-2.03c-.6.25-1.18.46-1.83.65l-.61-2.92c.67-.08,1.29-.13,1.94-.14l.45-2.41c-.6-.24-1.16-.51-1.75-.83l1.63-2.5c.54.42,1.01.82,1.47,1.27l2.03-1.39c-.25-.6-.46-1.18-.65-1.83l2.92-.61c.08.67.13,1.29.14,1.94l2.41.45c.24-.6.51-1.16.83-1.75l2.5,1.63c-.42.54-.82,1.01-1.27,1.47l1.39,2.03Zm-6.23.36c-1.17.24-1.92,1.39-1.67,2.56s1.39,1.92,2.56,1.67c1.17-.24,1.92-1.39,1.67-2.56s-1.39-1.92-2.56-1.67Z"/>
        <path class="cls-3" d="m486.72,251.98l-17.25,3.62-2.5-11.91,17.25-3.62,2.5,11.91Zm-15.92,1.57l13.87-2.91-1.79-8.53-13.87,2.91,1.79,8.53Z"/>
        <g>
          <polygon class="cls-3" points="506.49 236.14 507.45 240.7 509.14 240.34 507.83 234.1 501.74 235.38 502.09 237.07 506.49 236.14"/>
          <polygon class="cls-3" points="496.01 238.34 500.4 237.42 500.05 235.73 493.96 237.01 495.27 243.25 496.96 242.9 496.01 238.34"/>
          <polygon class="cls-3" points="508.69 246.63 504.29 247.55 504.65 249.24 510.73 247.96 509.49 242.03 507.8 242.39 508.69 246.63"/>
          <polygon class="cls-3" points="498.21 248.83 497.32 244.59 495.63 244.94 496.87 250.87 502.96 249.59 502.6 247.9 498.21 248.83"/>
        </g>
        <path class="cls-3" d="m253.45,294.87l-11.75-4.62c2.16,10.23,1.09,5.21,2.85,13.57l8.9-8.95Z"/>
        <g>
          <path class="cls-3" d="m219.21,302.05l9.93,3.9c-1.82-8.64-.92-4.4-2.4-11.46l-7.52,7.56Z"/>
          <rect class="cls-3" x="217.7" y="296.33" width="1.67" height="11.71" transform="translate(-57.39 51.31) rotate(-11.85)"/>
        </g>
        <g>
          <path class="cls-3" d="m275.52,290.24l-9.93-3.9c1.82,8.64.92,4.4,2.4,11.46l7.52-7.56Z"/>
          <rect class="cls-3" x="275.35" y="284.24" width="1.67" height="11.71" transform="translate(-53.68 62.89) rotate(-11.85)"/>
        </g>
      </g>
      <g>
        <rect class="cls-3" x="329.13" y="244.02" width="183.58" height="1.73" transform="translate(-41.31 91.64) rotate(-11.85)"/>
        <g>
          <rect class="cls-7" x="203.67" y="276.3" width="126.72" height="1.73" transform="translate(-51.22 60.73) rotate(-11.85)"/>
          <path class="cls-7" d="m333,263.33c.37,1.74-.75,3.45-2.49,3.82-1.74.37-3.45-.75-3.82-2.49s.75-3.45,2.49-3.82c1.74-.37,3.45.75,3.82,2.49Z"/>
        </g>
      </g>
    </g>
    <g>
      <path class="cls-9" d="m349.65,444.83H60.24c-15.14,0-27.42-12.27-27.42-27.42v-176.39c0-20.32,16.47-36.79,36.79-36.79h270.66c20.32,0,36.79,16.47,36.79,36.79v176.39c0,15.14-12.27,27.42-27.42,27.42Z"/>
      <g class="cls-10">
        <rect class="cls-3" x="30.31" y="193.66" width="350.61" height="233.61"/>
        <path class="cls-7" d="m205.62,251.09c-23.38,0-43.82,13.63-53.57,33.09-1.94,7.79-2.92,23.36,12.67,33.1,21.42,14.6,38.95-4.87,41.88-10.71,2.92-4.86,17.53-15.57,35.06-7.79,17.52,7.79,19.47,26.29,13.63,40.89,5.84-8.76,8.76-19.47,8.76-30.17,0-32.12-26.29-58.4-58.43-58.4Z"/>
        <path class="cls-5" d="m241.66,298.78c-17.53-7.79-32.14,2.92-35.06,7.79-2.92,5.84-20.45,25.31-41.88,10.71-15.58-9.74-14.61-25.31-12.67-33.1-2.92,7.79-5.84,16.55-5.84,25.31,0,32.12,26.29,58.4,59.41,58.4,20.45,0,39.93-10.71,49.67-28.23,5.84-14.6,3.89-33.1-13.63-40.89Z"/>
        <polygon class="cls-8" points="90.7 268.61 82.91 262.77 116.02 215.08 123.81 219.94 90.7 268.61"/>
        <polygon class="cls-8" points="102.39 276.39 94.59 271.53 127.71 222.87 135.5 227.73 102.39 276.39"/>
        <polygon class="cls-8" points="115.05 285.16 107.25 279.32 140.37 230.64 148.16 236.49 115.05 285.16"/>
        <polygon class="cls-8" points="284.51 253.03 276.71 258.88 262.11 236.49 269.9 230.64 284.51 253.03"/>
        <polygon class="cls-8" points="302.04 279.32 294.24 285.16 279.64 262.77 287.42 257.9 302.04 279.32"/>
        <polygon class="cls-8" points="314.7 271.53 306.9 276.39 273.79 227.73 281.59 222.87 314.7 271.53"/>
        <polygon class="cls-8" points="309.83 236.49 302.04 242.33 286.46 219.94 294.24 214.1 309.83 236.49"/>
        <polygon class="cls-8" points="326.38 263.74 318.59 268.61 303.98 246.22 311.78 241.36 326.38 263.74"/>
        <polygon class="cls-8" points="122.84 398.07 115.05 403.91 82.91 356.22 90.7 350.37 122.84 398.07"/>
        <polygon class="cls-8" points="148.16 382.49 139.39 387.36 107.25 339.67 116.02 333.83 148.16 382.49"/>
        <polygon class="cls-8" points="117.97 364 110.18 369.84 94.59 346.48 103.36 341.61 117.97 364"/>
        <polygon class="cls-8" points="135.5 390.28 127.71 396.12 113.1 373.73 120.89 368.87 135.5 390.28"/>
        <polygon class="cls-8" points="261.13 382.49 268.93 388.33 284.51 365.94 276.71 360.11 261.13 382.49"/>
        <polygon class="cls-8" points="302.04 339.67 294.24 333.83 279.64 356.22 287.42 361.08 302.04 339.67"/>
        <polygon class="cls-8" points="314.7 347.45 306.9 342.58 291.32 364 299.12 369.84 314.7 347.45"/>
        <polygon class="cls-8" points="273.79 390.28 281.59 396.12 296.19 373.73 288.4 367.89 273.79 390.28"/>
        <polygon class="cls-8" points="327.36 355.24 318.59 350.37 303.98 372.76 311.78 377.63 327.36 355.24"/>
        <polygon class="cls-8" points="286.46 399.04 294.24 403.91 308.85 381.52 301.07 376.65 286.46 399.04"/>
      </g>
      <g>
        <circle class="cls-4" cx="204.95" cy="308.26" r="43.05" transform="translate(-141.83 437.76) rotate(-76.86)"/>
        <path class="cls-7" d="m222.24,304.71l-23.81-15.65c-2.82-1.85-6.58.17-6.57,3.55.03,22.04,0,15,0,31.29,0,3.38,3.75,5.4,6.57,3.55l23.82-15.65c2.55-1.68,2.55-5.42,0-7.09Z"/>
      </g>
      <g>
        <path class="cls-3" d="m301.69,426.11c.63-.13,1.24-.2,1.91-.26v2.96c-.67-.06-1.28-.13-1.91-.26l-.93,2.26c.54.36,1.02.73,1.54,1.17l-2.1,2.1c-.44-.52-.81-1-1.17-1.54l-2.26.93c.13.63.2,1.24.26,1.91h-2.96c.06-.67.13-1.28.26-1.91l-2.26-.93c-.36.54-.73,1.02-1.17,1.54l-2.1-2.1c.52-.44,1-.81,1.54-1.17l-.93-2.26c-.63.13-1.24.2-1.91.26v-2.96c.67.06,1.28.13,1.91.26l.93-2.26c-.54-.36-1.02-.73-1.54-1.17l2.1-2.1c.44.52.81,1,1.17,1.54l2.26-.93c-.13-.63-.2-1.24-.26-1.91h2.96c-.06.67-.13,1.28-.26,1.91l2.26.93c.36-.54.73-1.02,1.17-1.54l2.1,2.1c-.52.44-1,.81-1.54,1.17l.93,2.26Zm-6.14-.93c-1.19,0-2.15.96-2.15,2.15s.96,2.15,2.15,2.15,2.15-.96,2.15-2.15-.96-2.15-2.15-2.15Z"/>
        <path class="cls-3" d="m330.81,433.22h-17.53v-12.1h17.53v12.1Zm-15.81-1.72h14.09v-8.66h-14.09v8.66Z"/>
        <g>
          <polygon class="cls-3" points="353.28 421.85 353.28 426.48 355 426.48 355 420.13 348.81 420.13 348.81 421.85 353.28 421.85"/>
          <polygon class="cls-3" points="342.63 421.85 347.1 421.85 347.1 420.13 340.91 420.13 340.91 426.48 342.63 426.48 342.63 421.85"/>
          <polygon class="cls-3" points="353.28 432.5 348.81 432.5 348.81 434.22 355 434.22 355 428.19 353.28 428.19 353.28 432.5"/>
          <polygon class="cls-3" points="342.63 432.5 342.63 428.19 340.91 428.19 340.91 434.22 347.1 434.22 347.1 432.5 342.63 432.5"/>
        </g>
        <path class="cls-3" d="m95.04,427.34l-10.49-6.89c.01,10.39,0,5.29,0,13.79l10.49-6.89Z"/>
        <g>
          <path class="cls-3" d="m60.25,427.34l8.86,5.82c-.01-8.78,0-4.47,0-11.64l-8.86,5.82Z"/>
          <rect class="cls-3" x="58.75" y="421.51" width="1.66" height="11.64"/>
        </g>
        <g>
          <path class="cls-3" d="m117.47,427.34l-8.86-5.82c.01,8.78,0,4.47,0,11.64l8.86-5.82Z"/>
          <rect class="cls-3" x="117.31" y="421.51" width="1.66" height="11.64"/>
        </g>
      </g>
      <g>
        <rect class="cls-3" x="176.96" y="412.02" width="182.54" height="1.72"/>
        <g>
          <rect class="cls-7" x="48.88" y="412.02" width="126" height="1.72"/>
          <path class="cls-7" d="m178.89,412.88c0,1.77-1.43,3.2-3.2,3.2s-3.2-1.43-3.2-3.2,1.43-3.2,3.2-3.2,3.2,1.43,3.2,3.2Z"/>
        </g>
      </g>
    </g>
    <g>
      <path class="cls-2" d="m375.61,415.67l-13.55,46.61-48.21-14.02c-2.44-.71-4.08-2.98-4.01-5.51l1.1-35.4c.16-5.26,5.25-8.96,10.3-7.49l24.28,7.06,5.89-20.26c2.05-7.03,11.93-7.25,14.28-.31l9.92,29.32Z"/>
      <path class="cls-2" d="m368.65,464.2l-6.59-1.92,13.55-46.61,6.59,1.92c6.73,1.96,10.6,9,8.64,15.73l-6.46,22.23c-1.96,6.73-9,10.6-15.73,8.64Z"/>
    </g>
    <g>
      <g>
        <ellipse class="cls-7" cx="404.7" cy="388.22" rx="15.66" ry="23.62" transform="translate(-153.31 332.33) rotate(-38.09)"/>
        <ellipse class="cls-7" cx="417.03" cy="387.01" rx="23.62" ry="15.66" transform="translate(-116.83 583.7) rotate(-63.09)"/>
      </g>
      <g>
        <ellipse class="cls-7" cx="416.56" cy="338.43" rx="12.8" ry="19.3" transform="translate(-98.61 187.93) rotate(-22.81)"/>
        <ellipse class="cls-7" cx="426.54" cy="340.13" rx="19.3" ry="12.8" transform="translate(-111.94 427.68) rotate(-47.8)"/>
      </g>
    </g>
  </g>
</svg>