<?xml version="1.0" encoding="UTF-8"?>
<svg id="Layer_1" data-name="Layer 1" xmlns="http://www.w3.org/2000/svg" xmlns:xlink="http://www.w3.org/1999/xlink" viewBox="0 0 55.12 55.12">
  <defs>
    <style>
      .cls-1 {
        fill: none;
      }

      .cls-2 {
        clip-path: url(#clippath);
      }

      .cls-3 {
        fill: #04227b;
      }

      .cls-4 {
        fill: #da4f69;
      }

      .cls-5 {
        fill: #5e7bac;
      }

      .cls-6 {
        clip-path: url(#clippath-1);
      }

      .cls-7 {
        clip-path: url(#clippath-4);
      }

      .cls-8 {
        clip-path: url(#clippath-3);
      }

      .cls-9 {
        clip-path: url(#clippath-5);
      }
    </style>
    <clipPath id="clippath">
      <rect class="cls-1" x="-1.13" y="154.26" width="119.81" height="99.11"/>
    </clipPath>
    <clipPath id="clippath-1">
      <rect class="cls-1" x="-45.66" y="-227.75" width="373.23" height="527.54"/>
    </clipPath>
    <clipPath id="clippath-3">
      <rect class="cls-1" x="-45.66" y="-227.75" width="373.23" height="527.54"/>
    </clipPath>
    <clipPath id="clippath-4">
      <rect class="cls-1" x="-45.66" y="-227.75" width="373.23" height="527.54"/>
    </clipPath>
    <clipPath id="clippath-5">
      <rect class="cls-1" x="-45.66" y="-227.75" width="373.23" height="527.54"/>
    </clipPath>
    <clipPath id="clippath-69">
      <rect class="cls-1" x="-45.66" y="-227.75" width="373.23" height="527.54"/>
    </clipPath>
    <clipPath id="clippath-285">
      <rect class="cls-1" x="-45.66" y="-227.75" width="373.23" height="527.54"/>
    </clipPath>
  </defs>
  <g class="cls-2">
    <g class="cls-6">
      <g class="cls-8">
        <g class="cls-7">
          <g class="cls-9">
            <path class="cls-3" d="m38.97,36.7c0,1.95-.6,3.53-1.81,4.74-1.28,1.13-2.86,1.73-4.89,1.73s-3.69-.6-4.89-1.73c-1.2-1.2-1.88-2.78-1.88-4.74,0-1.73.53-3.16,1.5-4.36h-3.39v-2.56h7.07v-3.46h3.16v3.46h6.85v2.56h-3.16c.98,1.2,1.43,2.63,1.43,4.36Zm-3.08,0c0-1.13-.38-2.11-.98-2.78-.68-.75-1.5-1.13-2.63-1.13s-1.96.38-2.63,1.13c-.68.68-.98,1.65-.98,2.78s.3,2.11.98,2.86c.68.68,1.5,1.05,2.63,1.05s1.96-.38,2.63-1.05c.6-.75.98-1.73.98-2.86Zm11.59,17.59h-16.33c-.68,0-1.13-.15-1.43-.45-.3-.23-.45-.68-.45-1.35v-6.62h3.23l-.08,5.86h15.05v2.56Zm3.54-16.24h-4.44v8.8h-3.16v-19.55h3.16v8.2h4.44v2.56Z"/>
          </g>
        </g>
      </g>
    </g>
  </g>
  <g>
    <path class="cls-5" d="m31.74,3.85v17.64l14.58-9.01c-3.58-4.45-8.72-7.6-14.58-8.62Z"/>
    <path class="cls-5" d="m23.38,21.48V3.85c-5.86,1.03-11,4.17-14.58,8.62l14.58,9.01Z"/>
    <path class="cls-5" d="m23.38,51.27v-17.63l-14.58,9.01c3.58,4.45,8.72,7.6,14.58,8.62Z"/>
    <path class="cls-4" d="m6.15,16.54l9.56,5.9h3.57l-12.2-7.54c-.33.53-.64,1.08-.92,1.64Z"/>
    <path class="cls-4" d="m8.13,41.78l14.73-9.1h-3.57l-12.2,7.54c.33.53.68,1.05,1.05,1.56Z"/>
    <path class="cls-4" d="m46.99,13.34l-14.72,9.1h3.57l12.21-7.54c-.33-.53-.68-1.06-1.05-1.56Z"/>
    <path class="cls-4" d="m48.97,38.58l-9.56-5.9h-3.57l12.21,7.54c.33-.53.64-1.08.93-1.64Z"/>
    <path class="cls-5" d="m49.45,17.53l-7.96,4.92h9.6c-.37-1.71-.93-3.36-1.64-4.92Z"/>
    <path class="cls-5" d="m49.45,37.6c.71-1.56,1.27-3.2,1.64-4.92h-9.6l7.96,4.92Z"/>
    <path class="cls-5" d="m4.03,22.44h9.6l-7.96-4.92c-.72,1.56-1.27,3.2-1.64,4.92Z"/>
    <path class="cls-5" d="m4.03,32.68c.37,1.71.93,3.36,1.64,4.92l7.96-4.92H4.03Z"/>
    <path class="cls-4" d="m3.48,27.56c0,1.01.07,2,.19,2.98h47.78c.12-.98.19-1.97.19-2.98s-.07-2-.19-2.98H3.67c-.12.98-.19,1.97-.19,2.98Z"/>
    <path class="cls-5" d="m31.74,51.27c5.87-1.03,11-4.17,14.58-8.63l-14.58-9.01v17.63Z"/>
    <path class="cls-4" d="m25.16,51.52c.79.08,1.59.12,2.41.12s1.62-.04,2.41-.12V3.6c-.79-.08-1.59-.12-2.41-.12s-1.61.04-2.41.12v47.92Z"/>
    <path d="m27.56,55.12C12.36,55.12,0,42.76,0,27.56S12.36,0,27.56,0s27.56,12.36,27.56,27.56-12.36,27.56-27.56,27.56Zm0-53.52C13.25,1.61,1.61,13.25,1.61,27.56s11.64,25.96,25.96,25.96,25.96-11.64,25.96-25.96S41.87,1.61,27.56,1.61Z"/>
  </g>
</svg>