<?xml version="1.0" encoding="UTF-8"?>
<svg id="Layer_1" data-name="Layer 1" xmlns="http://www.w3.org/2000/svg" xmlns:xlink="http://www.w3.org/1999/xlink" viewBox="0 0 1252.41 244.08">
  <defs>
    <style>
      .cls-1 {
        fill: #fff;
      }

      .cls-2 {
        fill: #e30e21;
      }

      .cls-3 {
        filter: url(#drop-shadow-2);
      }

      .cls-4 {
        filter: url(#drop-shadow-3);
      }

      .cls-5 {
        filter: url(#drop-shadow-1);
      }
    </style>
    <filter id="drop-shadow-1" filterUnits="userSpaceOnUse">
      <feOffset dx="3" dy="3"/>
      <feGaussianBlur result="blur" stdDeviation="3"/>
      <feFlood flood-color="#000" flood-opacity=".4"/>
      <feComposite in2="blur" operator="in"/>
      <feComposite in="SourceGraphic"/>
    </filter>
    <filter id="drop-shadow-2" filterUnits="userSpaceOnUse">
      <feOffset dx="3" dy="3"/>
      <feGaussianBlur result="blur-2" stdDeviation="3"/>
      <feFlood flood-color="#000" flood-opacity=".4"/>
      <feComposite in2="blur-2" operator="in"/>
      <feComposite in="SourceGraphic"/>
    </filter>
    <filter id="drop-shadow-3" filterUnits="userSpaceOnUse">
      <feOffset dx="3" dy="3"/>
      <feGaussianBlur result="blur-3" stdDeviation="3"/>
      <feFlood flood-color="#000" flood-opacity=".4"/>
      <feComposite in2="blur-3" operator="in"/>
      <feComposite in="SourceGraphic"/>
    </filter>
  </defs>
  <g class="cls-5">
    <g>
      <path class="cls-2" d="m.87,65.82v-.87h21.75v2.61c0,8.99,4.49,12.61,24.21,12.61,17.4,0,21.46-2.61,21.46-9.13,0-5.94-3.33-8.12-13.34-9.86l-27.26-3.91C10.29,54.52,0,45.82,0,30.01,0,15.37,11.89,0,44.51,0c29.87,0,43.79,13.77,43.79,34.22v.87h-21.89v-2.03c0-9.28-4.78-13.19-24.07-13.19-15.66,0-20.44,3.04-20.44,9.28,0,5.65,3.19,7.68,11.31,9.13l27.26,4.35c21.75,3.48,29.58,14.06,29.58,27.4,0,15.8-12.32,30.01-43.21,30.01S.87,88.44.87,65.82Z"/>
      <path class="cls-2" d="m98.88,98.59V1.45h21.75v46.69h1.16c2.32-12.32,10.87-23.63,29.43-23.63,19.57,0,29.14,12.76,29.14,29.58v44.51h-21.75v-37.99c0-12.18-5.22-16.53-18.85-16.53-14.64,0-19.14,5.94-19.14,18.12v36.39h-21.75Z"/>
      <path class="cls-2" d="m188.63,80.61c0-10.73,7.97-17.4,23.49-18.99l31.17-3.19v-2.75c0-9.42-4.2-12.03-15.8-12.03s-15.51,2.9-15.51,11.16v.58h-21.89v-.43c0-17.98,15.08-30.45,39-30.45s35.67,12.47,35.67,31.46v42.63h-20.3v-16.67h-1.16c-3.33,11.31-13.48,18.12-29.58,18.12s-25.08-7.25-25.08-19.43Zm31.32,4.06c14.79,0,22.76-3.48,23.34-13.77l-25.23,2.9c-5.22.43-7.54,1.88-7.54,5.36,0,3.91,3.04,5.51,9.42,5.51Z"/>
      <path class="cls-2" d="m275.76,98.59V25.95h20.15v19.28h1.3c2.03-11.74,9.71-20.73,24.36-20.73,16.24,0,22.91,11.16,22.91,25.37v12.03h-21.75v-7.54c0-7.97-3.19-11.45-12.03-11.45-9.71,0-13.19,4.49-13.19,13.63v42.05h-21.75Z"/>
      <path class="cls-2" d="m350.14,62.34c0-23.2,16.38-37.84,40.31-37.84s39.58,12.47,39.58,35.23c0,2.61-.29,4.49-.58,6.96h-59.15c.58,11.16,5.8,15.95,19.86,15.95,12.9,0,17.4-3.33,17.4-9.57v-1.45h21.75v1.59c0,15.8-15.37,26.82-38.42,26.82-24.21,0-40.74-11.89-40.74-37.7Zm20.44-7.1h38.57c-.58-9.57-6.38-13.77-19.14-13.77s-18.41,4.35-19.43,13.77Z"/>
    </g>
  </g>
  <g class="cls-3">
    <path class="cls-1" d="m457.93,128.27v-19.72h17.83c5.36,0,7.68-1.45,9.13-4.64l-35.52-72.93h24.65l15.37,33.2,6.09,17.11h1.45l5.8-17.25,13.77-33.06h24.21l-35.96,77.86c-6.96,15.22-16.67,19.43-34.94,19.43h-11.89Z"/>
    <path class="cls-1" d="m543.18,67.37c0-23.2,16.67-37.84,41.47-37.84s41.47,14.64,41.47,37.84-16.67,37.7-41.47,37.7-41.47-14.79-41.47-37.7Z"/>
    <path class="cls-1" d="m634.82,76.22V30.98h21.75v37.99c0,11.74,4.93,16.67,18.7,16.67s19.28-5.51,19.28-17.83V30.98h21.75v72.64h-20.3v-22.18h-1.16c-1.88,12.18-10.73,23.63-29.87,23.63-20.44,0-30.16-12.61-30.16-28.85Z"/>
    <path class="cls-1" d="m727.46,103.62V30.98h20.15v19.28h1.3c2.03-11.74,9.71-20.73,24.36-20.73,16.24,0,22.91,11.16,22.91,25.37v12.03h-21.75v-7.54c0-7.97-3.19-11.45-12.03-11.45-9.71,0-13.19,4.49-13.19,13.63v42.05h-21.75Z"/>
    <path class="cls-2" d="m599.89,63.79l-21.44-14.09c-2.54-1.67-5.92.16-5.92,3.2.02,19.85,0,13.51,0,28.17,0,3.04,3.38,4.87,5.92,3.2l21.45-14.09c2.3-1.51,2.3-4.88,0-6.39Z"/>
  </g>
  <g class="cls-4">
    <path class="cls-2" d="m825.13,81.58v-.44h21.75v1.3c0,6.52,4.06,8.26,16.38,8.26,11.6,0,14.35-1.88,14.35-6.23,0-4.06-2.17-5.22-10.73-6.38l-20.44-2.46c-14.5-1.59-22.62-8.12-22.62-20.3s10.87-22.91,35.81-22.91,37.26,8.99,37.26,26.68v.43h-21.75v-.87c0-5.94-2.9-8.99-16.24-8.99-10.87,0-13.63,1.88-13.63,6.52,0,3.77,2.03,5.36,11.6,6.52l15.51,1.88c19.43,2.17,26.68,8.7,26.68,20.73,0,13.63-13.48,22.62-35.96,22.62-24.5,0-37.99-9.57-37.99-26.39Z"/>
    <path class="cls-2" d="m941.12,106.52c-16.96,0-27.26-7.97-27.26-26.24v-28.42h-11.45v-17.98h11.45v-14.06h21.75v14.06h23.49v17.98h-23.49v25.95c0,7.25,2.75,9.13,10.44,9.13h13.05v19.57h-17.98Z"/>
    <path class="cls-2" d="m964.47,70.27c0-23.2,16.67-37.84,41.47-37.84s41.47,14.64,41.47,37.84-16.67,37.7-41.47,37.7-41.47-14.79-41.47-37.7Zm61.33,0c0-12.76-5.22-18.7-19.86-18.7s-19.86,5.94-19.86,18.7,5.07,18.41,19.86,18.41,19.86-5.65,19.86-18.41Z"/>
    <path class="cls-2" d="m1056.24,106.52V33.88h20.15v19.28h1.3c2.03-11.74,9.71-20.73,24.36-20.73,16.24,0,22.91,11.16,22.91,25.37v12.03h-21.75v-7.54c0-7.97-3.19-11.45-12.03-11.45-9.71,0-13.19,4.49-13.19,13.63v42.05h-21.75Z"/>
    <path class="cls-2" d="m1134.83,131.17v-19.72h17.83c5.36,0,7.68-1.45,9.13-4.64l-35.52-72.93h24.65l15.37,33.2,6.09,17.11h1.45l5.8-17.25,13.77-33.06h24.21l-35.96,77.86c-6.96,15.22-16.67,19.43-34.94,19.43h-11.89Z"/>
    <path class="cls-2" d="m1252.41,9.38v10.15c0,11.16-3.04,43.35-3.04,55.1h-21.89c0-11.89-3.04-43.93-3.04-55.1v-10.15"/>
    <rect class="cls-2" x="1226.03" y="82.89" width="24.79" height="23.63"/>
  </g>
</svg>