<?xml version="1.0" encoding="UTF-8"?>
<svg id="Layer_1" data-name="Layer 1" xmlns="http://www.w3.org/2000/svg" viewBox="0 0 224.57 224.56">
  <defs>
    <style>
      .cls-1, .cls-2 {
        fill: #fff;
      }

      .cls-2 {
        fill-rule: evenodd;
      }
    </style>
  </defs>
  <g>
    <path class="cls-1" d="m140.74,112.29c0,15.71-12.74,28.45-28.45,28.45s-28.45-12.74-28.45-28.45,12.74-28.45,28.45-28.45,28.45,12.74,28.45,28.45"/>
    <path class="cls-1" d="m44,157.82c0,12.58,10.19,22.76,22.76,22.76h91.05c12.58,0,22.76-10.19,22.76-22.76v-91.05c0-12.58-10.19-22.76-22.76-22.76h-91.05c-12.58,0-22.76,10.19-22.76,22.76v91.05Zm113.82-102.43c6.32,0,11.38,5.12,11.38,11.38s-5.06,11.38-11.38,11.38-11.38-5.12-11.38-11.38,5.12-11.38,11.38-11.38Zm-45.53,17.07c21.97,0,39.84,17.87,39.84,39.84s-17.87,39.84-39.84,39.84-39.84-17.87-39.84-39.84,17.87-39.84,39.84-39.84h0Z"/>
  </g>
  <path class="cls-2" d="m185.52,0H39.06C17.52,0,0,17.51,0,39.05v146.45c0,21.53,17.52,39.05,39.06,39.05h146.46c21.53,0,39.05-17.52,39.05-39.05V39.06C224.57,17.51,207.05,0,185.52,0h0Zm24.4,185.5c0,13.46-10.94,24.41-24.4,24.41H39.06c-13.46,0-24.41-10.95-24.41-24.41V39.06c0-13.46,10.95-24.42,24.41-24.42h146.46c13.46,0,24.4,10.96,24.4,24.42v146.45Z"/>
</svg>