<?xml version="1.0" encoding="UTF-8"?>
<svg id="Layer_1" data-name="Layer 1" xmlns="http://www.w3.org/2000/svg" viewBox="0 0 351.39 427.41">
  <defs>
    <style>
      .cls-1 {
        fill: #fff;
      }

      .cls-2 {
        fill: #b59545;
      }

      .cls-3 {
        fill: #9d9167;
      }

      .cls-4 {
        fill: #bb3f40;
      }

      .cls-5 {
        fill: #d4b764;
      }

      .cls-6 {
        fill: #214b95;
      }
    </style>
  </defs>
  <g>
    <g>
      <g>
        <g>
          <path class="cls-1" d="m266.28,133.38c0-35.39-20.91-65.89-51.05-79.83v7.99l-8.45,3.78c26.61,11.13,45.32,37.41,45.32,68.06,0,28.45-16.11,53.14-39.7,65.43l7.92,11.85c27.38-14.9,45.96-43.92,45.96-77.28Z"/>
          <path class="cls-6" d="m220.12,211.46l-8.6-12.86.59-.31c24.29-12.66,39.38-37.53,39.38-64.9,0-29.59-17.64-56.09-44.95-67.5l-1.28-.53,9.36-4.19v-8.54l.85.39c31.22,14.44,51.4,45.99,51.4,80.38,0,32.47-17.73,62.28-46.28,77.81l-.48.26Zm-6.86-12.42l7.24,10.84c27.88-15.39,45.17-44.65,45.17-76.49,0-33.6-19.54-64.46-49.85-78.89v7.44l-7.55,3.38c27.03,11.88,44.42,38.45,44.42,68.07,0,27.6-15.09,52.69-39.43,65.65Z"/>
        </g>
        <g>
          <path class="cls-1" d="m104.63,133.38c0-30.63,18.68-56.9,45.26-68.04l-8.39-3.81v-7.99c-30.14,13.94-51.05,44.45-51.05,79.83,0,33.25,18.45,62.18,45.67,77.12l8.34-11.62c-23.66-12.28-39.83-37-39.83-65.5Z"/>
          <path class="cls-6" d="m136.3,211.29l-.47-.26c-28.36-15.57-45.99-45.32-45.99-77.65,0-34.39,20.17-65.94,51.4-80.38l.85-.39v8.54l9.29,4.22-1.27.53c-27.27,11.43-44.89,37.92-44.89,67.48,0,27.43,15.14,52.33,39.51,64.97l.62.32-9.05,12.62Zm4.6-156.8c-30.31,14.42-49.85,45.28-49.85,78.89,0,31.71,17.19,60.91,44.9,76.34l7.63-10.63c-24.41-12.94-39.54-38.06-39.54-65.71,0-29.6,17.37-56.16,44.37-68.05l-7.51-3.4v-7.43Z"/>
        </g>
      </g>
      <g>
        <path class="cls-1" d="m144.39,198.92l-16.53-4.59s3.45,9.61,11.12,13.14l5.42-8.55Z"/>
        <path class="cls-6" d="m139.2,208.22l-.49-.23c-7.81-3.59-11.29-13.08-11.43-13.48l-.38-1.06,18.58,5.24-6.26,9.53Zm-10.33-13c1.11,2.5,4.32,8.66,9.86,11.47l4.71-7.43-14.56-4.04Z"/>
      </g>
      <g>
        <path class="cls-1" d="m212.85,198.92l16.53-4.59s-3.45,9.61-11.11,13.14l-5.42-8.55Z"/>
        <path class="cls-6" d="m211.77,198.7l18.6-5.24-.41,1.06c-.14.4-3.62,9.89-11.43,13.48l-.49.23-6.26-9.53Zm2.03.57l4.71,7.43c5.54-2.81,8.74-8.97,9.86-11.47l-14.56,4.04Z"/>
      </g>
    </g>
    <path class="cls-6" d="m230.27,193.45c-4.26,3.43-10,7.01-14.91,9.53-.93.48-1.88.94-2.84,1.39-10.35,4.81-21.88,7.5-34.04,7.5s-23.68-2.69-34.03-7.49c-.96-.45-1.9-.91-2.84-1.39-4.93-2.53-10.59-6.11-14.86-9.56l-13.5,12.36c17.44,15.24,40.25,24.47,65.23,24.47s47.57-9.14,64.96-24.24l-13.18-12.57Z"/>
    <g>
      <path class="cls-1" d="m141.42,207.52l-.8,1.49-4-2.13-2.72,5.09.56.3c.57.3,1.19.61,1.87.92.84.38,1.61.71,2.33.99l-.45,1.63c-.96-.34-2.05-.8-3.26-1.39-.79-.37-1.68-.82-2.68-1.35l-1.49-.8,4.33-8.11,6.3,3.36Zm7.89,2.01c.06.08.01.18-.14.31-.08.07-.15.13-.2.18-.06.08-.11.16-.14.25l-4.86,11.07-2.35-1.03,2.31-5.26-1.17-.51-2.1,4.78-2.31-1.01,4.94-11.25,1.58.7c.52.22.81.38.89.47.05.06,0,.15-.15.26-.09.06-.16.12-.2.16-.08.08-.13.17-.18.27l-1.79,4.07,1.17.52,2.25-5.12,1.47.65c.55.24.87.41.98.5Z"/>
      <path class="cls-1" d="m165.42,213.72l-.24,1.44-5.22-.86.24-1.44,5.22.86Zm2.28,2.32l-.24,1.44-10.45-1.73.24-1.43,10.45,1.72Zm-2.38,2.08c.68.52.96,1.1.86,1.73-.1.63-.56,1.09-1.37,1.38-.89.32-2.05.36-3.49.12-1.32-.22-2.33-.62-3.02-1.2-.64-.54-.9-1.12-.8-1.75.1-.62.54-1.08,1.32-1.37.84-.33,1.92-.38,3.25-.16,1.44.24,2.53.65,3.27,1.23Zm-4.71.14c-.32.11-.5.32-.55.61-.04.26.07.5.33.71.28.24.71.4,1.3.5.57.09,1.03.07,1.37-.06.33-.11.52-.3.56-.57.05-.29-.07-.54-.34-.75-.29-.22-.72-.37-1.28-.46-.59-.1-1.05-.09-1.38.02Zm10.59-3.75c.23.06.39.12.47.17.08.05.11.1.1.16,0,.05-.05.12-.13.23-.08.1-.13.19-.17.26-.05.11-.09.23-.11.36l-.54,3.29,2.21.36-.28,1.74-2.21-.37-.55,3.31-2.57-.42,1.56-9.46,1.2.2c.45.08.79.13,1.02.17Zm-10.7,7.36c.08.07.07.19-.04.35-.05.07-.08.13-.1.16-.04.08-.06.16-.07.24l-.2,1.18,10.12,1.67-.28,1.67-12.69-2.09.61-3.71,1.51.25c.63.1,1,.19,1.13.28Z"/>
      <path class="cls-1" d="m191.54,214.29l.93,6.56-8.58,1.22-.93-6.56,8.58-1.22Zm-5.31,5.74l3.44-.49-.46-3.21-3.44.49.45,3.2Zm11.2-7.17c.1.02.11.13.04.31-.02.1-.04.17-.05.22-.01.09-.01.19,0,.28l1.22,8.62-2.58.37-1.35-9.49,1.55-.22c.64-.09,1.03-.13,1.16-.09Zm-9.57,9.99c.1.05.12.16.07.35-.03.11-.05.19-.06.24,0,.09,0,.19,0,.28l.21,1.49,10.94-1.55.24,1.68-13.52,1.92-.58-4.11,1.52-.22c.64-.09,1.03-.12,1.18-.08Z"/>
      <path class="cls-1" d="m223.99,208.06l-6.51,3.16.94,1.93,4.92-2.39,2.11,4.33-2.35,1.14-1.37-2.82-9.86,4.79-.73-1.51,4.96-2.41-.94-1.94-6.4,3.11-.74-1.52,10.81-5.26c-.09-.34-.21-.74-.37-1.2-.13-.4-.25-.74-.39-1.03l-9.51,4.62-.75-1.54,12.06-5.87c.32.66.6,1.31.85,1.98.25.7.43,1.31.56,1.83l1.97-.95.74,1.52Z"/>
    </g>
    <g>
      <path class="cls-3" d="m242.16,123.02c3.43-2.55,5.03-7.1,3.64-11.38-1.36-4.2-5.22-7.03-9.62-7.07-.07-.71-.21-1.42-.44-2.11-1.34-4.12-5.2-6.89-9.62-6.89-.43,0-.85.03-1.28.08-.05-.19-.1-.37-.16-.56-1.34-4.12-5.2-6.89-9.62-6.89-1.09,0-2.18.17-3.22.51-.3.1-.6.21-.9.34.08-.52.12-1.04.12-1.55,0-5.65-4.5-10.24-10.04-10.24-.2,0-.39,0-.58.02-.91-4.7-4.98-8.25-9.85-8.25-.73,0-1.44.08-2.14.23-1.36-4.04-5.19-6.97-9.69-6.97s-8.34,2.93-9.7,6.98c-.72-.16-1.46-.25-2.2-.25-4.87,0-8.94,3.56-9.84,8.25-.19-.01-.39-.02-.58-.02-5.53,0-10.03,4.59-10.03,10.24,0,.65.06,1.3.18,1.93-.55-.29-1.12-.54-1.69-.73-1.05-.34-2.13-.51-3.23-.51-4.41,0-8.28,2.77-9.62,6.89-.06.19-.11.37-.16.56-.42-.05-.85-.08-1.28-.08-4.41,0-8.28,2.77-9.62,6.89-.23.69-.37,1.4-.44,2.11-4.4.04-8.26,2.87-9.62,7.07-.84,2.6-.62,5.37.61,7.8.73,1.44,1.77,2.65,3.03,3.58-.38.63-.69,1.31-.92,2.02-1.5,4.63.62,9.6,4.81,11.92-.07.18-.14.36-.2.55-1.71,5.26,1.27,10.97,6.64,12.71.39.13.78.23,1.18.31-.34.35-.64.71-.91,1.08-1.6,2.2-2.27,4.88-1.88,7.55.39,2.69,1.8,5.05,3.98,6.63.16.11.32.22.48.33-2.03,4.34-.82,9.61,3.11,12.47.59.42,1.21.79,1.87,1.07-1.27,4.07.11,8.69,3.75,11.34,1.76,1.28,3.84,1.95,6.01,1.95s4.23-.68,5.94-1.9c.48.56,1.03,1.06,1.64,1.5,1.7,1.23,3.71,1.89,5.82,1.89,2.6,0,5.1-1.01,7-2.78.15.12.3.24.46.36,1.7,1.23,3.71,1.88,5.82,1.88h0c3.27,0,6.38-1.6,8.32-4.27.33-.46.62-.94.88-1.44.25.5.55.98.88,1.44,1.94,2.67,5.06,4.27,8.32,4.27,2.11,0,4.12-.65,5.81-1.89.16-.12.31-.23.46-.36,1.9,1.77,4.4,2.78,7,2.78,2.11,0,4.12-.65,5.82-1.89.61-.44,1.16-.95,1.64-1.5,1.72,1.22,3.79,1.9,5.94,1.9h0c2.17,0,4.25-.68,6.01-1.95,3.64-2.65,5.02-7.26,3.75-11.34.66-.28,1.29-.65,1.87-1.07,2.18-1.58,3.59-3.94,3.98-6.63.29-2.01-.02-4.02-.87-5.84.16-.1.32-.21.48-.33,2.18-1.58,3.59-3.94,3.98-6.63.39-2.67-.28-5.35-1.88-7.55-.27-.37-.58-.74-.91-1.08.4-.08.79-.18,1.18-.31,5.37-1.75,8.35-7.45,6.64-12.71-.06-.19-.13-.37-.2-.55,4.19-2.32,6.31-7.29,4.81-11.92-.23-.71-.54-1.39-.92-2.02Z"/>
      <g>
        <g>
          <g>
            <path class="cls-2" d="m150.31,92.1s0,.02,0,.03c0-.01,0-.03,0-.03Z"/>
            <path class="cls-5" d="m200.72,79.74c-1.07,0-2.08.23-3.01.65.06-.38.09-.78.09-1.18,0-4.24-3.35-7.68-7.48-7.68-1.53,0-2.95.48-4.14,1.29,0-.11,0-.22,0-.33,0-4.24-3.43-7.67-7.67-7.67s-7.67,3.43-7.67,7.67c0,.12,0,.25.01.37-1.2-.84-2.65-1.33-4.21-1.33-4.13,0-7.48,3.44-7.48,7.68,0,.4.03.79.09,1.18-.92-.42-1.94-.65-3.01-.65-4.13,0-7.48,3.44-7.48,7.68,0,1.73.58,3.4,1.51,4.68,0,0,6.78,8.13,15.02,7.87l26.84.09c6.93.22,12.45-5.18,13.81-6.8,1.26-1.37,2.21-3.8,2.21-5.84,0-4.24-3.35-7.68-7.48-7.68Z"/>
            <path class="cls-2" d="m150.32,92.13s0,.03,0,0h0Z"/>
          </g>
          <polygon class="cls-3" points="178.4 84.33 186.59 99.95 170.41 99.95 178.4 84.33"/>
        </g>
        <g>
          <g>
            <path class="cls-2" d="m130.56,147.53s.03,0,.03,0c-.01,0-.03,0-.03,0Z"/>
            <path class="cls-5" d="m134.38,95.76c-.33,1.02-.42,2.05-.31,3.06-.35-.17-.71-.32-1.09-.45-4.03-1.31-8.34.81-9.61,4.74-.47,1.46-.46,2.96-.06,4.33-.1-.04-.2-.07-.31-.11-4.03-1.31-8.35.89-9.66,4.92-1.31,4.03.9,8.35,4.92,9.66.12.04.24.07.36.11-1.17.88-2.08,2.1-2.57,3.59-1.27,3.93.96,8.17,4.99,9.48.38.13.77.22,1.15.28-.68.75-1.21,1.64-1.54,2.66-1.28,3.93.96,8.17,5,9.49,1.64.53,3.41.5,4.92,0,0,0,10.44-3.5,12.74-11.43l8.38-25.5c2.35-6.53-1.69-13.87-2.81-15.67-.92-1.62-2.94-3.28-4.87-3.91-4.04-1.31-8.34.81-9.62,4.74Z"/>
            <path class="cls-2" d="m130.59,147.53s.03,0,0,0h0Z"/>
          </g>
          <polygon class="cls-3" points="131.85 118.4 149.23 115.45 144.23 130.83 131.85 118.4"/>
        </g>
        <g>
          <g>
            <path class="cls-2" d="m176.75,183.02s.01-.02.01-.03c0,.01-.01.03-.01.03Z"/>
            <path class="cls-5" d="m128.7,163.4c.86.63,1.82,1.04,2.81,1.24-.27.28-.53.58-.77.9-2.49,3.43-1.81,8.18,1.54,10.6,1.24.9,2.67,1.35,4.1,1.39-.07.09-.14.17-.2.26-2.49,3.43-1.73,8.22,1.7,10.71,3.43,2.49,8.22,1.73,10.71-1.7.07-.1.14-.2.21-.31.48,1.38,1.36,2.63,2.62,3.55,3.34,2.43,8.07,1.61,10.56-1.82.24-.32.44-.66.62-1,.5.88,1.19,1.66,2.05,2.29,3.34,2.43,8.07,1.61,10.56-1.82,1.01-1.39,1.53-3.09,1.53-4.68,0,0-.31-11.52-7.14-16.16l-21.66-15.85c-5.48-4.25-13.51-2.17-15.57-1.65-1.83.37-4.02,1.78-5.22,3.43-2.49,3.43-1.81,8.18,1.53,10.61Z"/>
            <path class="cls-2" d="m176.76,182.99s0-.03,0,0h0Z"/>
          </g>
          <polygon class="cls-3" points="149.45 172.8 152.01 155.35 165.1 164.86 149.45 172.8"/>
        </g>
        <g>
          <g>
            <path class="cls-2" d="m225.71,147.53s-.02,0-.03,0c.01,0,.03,0,.03,0Z"/>
            <path class="cls-5" d="m222.46,95.76c.33,1.02.42,2.05.31,3.06.35-.17.71-.32,1.09-.45,4.03-1.31,8.34.81,9.61,4.74.47,1.46.46,2.96.06,4.33.1-.04.2-.07.31-.11,4.03-1.31,8.35.89,9.66,4.92,1.31,4.03-.9,8.35-4.92,9.66-.12.04-.24.07-.36.11,1.17.88,2.09,2.1,2.57,3.59,1.28,3.93-.96,8.17-4.99,9.48-.38.13-.76.22-1.15.28.68.75,1.21,1.64,1.54,2.66,1.28,3.93-.96,8.17-4.99,9.49-1.64.53-3.42.5-4.92,0,0,0-10.43-3.39-12.73-11.31l-8.38-25.5c-2.35-6.53,1.68-13.99,2.8-15.79.92-1.62,2.94-3.28,4.88-3.91,4.03-1.31,8.34.81,9.61,4.74Z"/>
            <path class="cls-2" d="m225.67,147.53s-.03,0,0,0h0Z"/>
          </g>
          <polygon class="cls-3" points="224.99 118.4 207.6 115.45 212.6 130.83 224.99 118.4"/>
        </g>
        <g>
          <g>
            <path class="cls-2" d="m179.52,183.02s0-.02,0-.03c0,.01,0,.03,0,.03Z"/>
            <path class="cls-5" d="m228.14,163.4c-.86.63-1.82,1.04-2.81,1.24.27.28.53.58.76.9,2.49,3.43,1.81,8.18-1.53,10.6-1.24.9-2.67,1.35-4.1,1.39.07.09.14.17.2.26,2.49,3.43,1.73,8.22-1.7,10.71-3.43,2.49-8.22,1.73-10.71-1.7-.07-.1-.15-.2-.21-.31-.48,1.38-1.36,2.63-2.62,3.55-3.34,2.43-8.07,1.61-10.56-1.82-.23-.32-.44-.66-.62-1-.5.88-1.19,1.66-2.05,2.29-3.34,2.43-8.07,1.61-10.56-1.82-1.02-1.39-1.53-3.09-1.53-4.68,0,0,.63-11.38,7.45-16.02l21.66-15.85c5.48-4.26,13.19-2.31,15.25-1.79,1.83.37,4.02,1.78,5.22,3.43,2.49,3.43,1.81,8.18-1.53,10.61Z"/>
            <path class="cls-2" d="m179.51,182.99s0-.03,0,0h0Z"/>
          </g>
          <polygon class="cls-3" points="207.38 172.8 204.82 155.35 191.73 164.86 207.38 172.8"/>
        </g>
      </g>
    </g>
    <path class="cls-3" d="m178.36,170.58c-5.05,0-9.95-.99-14.57-2.94-4.46-1.88-8.46-4.58-11.89-8.02-3.44-3.44-6.13-7.44-8.02-11.9-1.95-4.62-2.94-9.52-2.94-14.57s.99-9.95,2.94-14.57c1.88-4.46,4.58-8.46,8.02-11.89,3.44-3.44,7.44-6.13,11.89-8.02,4.61-1.95,9.51-2.94,14.57-2.94s9.95.99,14.56,2.94c4.46,1.88,8.46,4.58,11.89,8.02,3.44,3.44,6.13,7.44,8.02,11.89,1.95,4.61,2.94,9.51,2.94,14.57s-.99,9.95-2.94,14.57c-1.89,4.46-4.58,8.46-8.02,11.9-3.44,3.44-7.44,6.14-11.89,8.02-4.61,1.95-9.51,2.94-14.56,2.94Zm0-72.03c-19.08,0-34.6,15.52-34.6,34.6s15.52,34.61,34.6,34.61,34.6-15.52,34.6-34.61-15.52-34.6-34.6-34.6Z"/>
    <path class="cls-1" d="m213.86,133.16c0,19.61-15.89,35.51-35.5,35.51s-35.5-15.89-35.5-35.51,15.9-35.5,35.5-35.5,35.5,15.89,35.5,35.5Z"/>
    <g>
      <path class="cls-4" d="m178.36,100.39c-11.26,0-21.2,5.68-27.1,14.34h.01c-1.86,2.67-2.96,5.91-2.96,9.4,0,9.05,7.34,16.38,16.38,16.38,5.68,0,10.72-2.97,13.66-7.36h0c2.95-4.31,7.87-7.07,13.49-7.07,9.05,0,16.38,7.34,16.38,16.38,0,3.08-.85,5.96-2.32,8.42h0c3.3-5.12,5.21-11.2,5.21-17.74,0-18.1-14.67-32.77-32.77-32.77Z"/>
      <path class="cls-6" d="m208.24,142.48c0-9.05-7.33-16.38-16.38-16.38-5.62,0-10.54,2.76-13.49,7.07h0c-2.94,4.38-7.98,7.35-13.66,7.35-9.05,0-16.38-7.34-16.38-16.38,0-3.49,1.09-6.73,2.96-9.39h-.01c-3.58,5.24-5.67,11.58-5.67,18.42,0,18.1,14.67,32.77,32.77,32.77,11.56,0,21.73-5.99,27.56-15.03h0c1.48-2.46,2.32-5.34,2.32-8.42Z"/>
    </g>
  </g>
  <g>
    <path class="cls-1" d="m90.34,264.22h-7.3v5.28h8.15v4.13h-12.66v-22.25h12.25v4.13h-7.74v4.62h7.3v4.09Z"/>
    <path class="cls-1" d="m94.11,262.64c0-2.01-.06-3.73-.12-5.15h3.77l.21,2.18h.09c.62-1.02,1.88-2.54,4.36-2.54,1.85,0,3.33,1.06,3.94,2.74h.06c.53-.83,1.18-1.49,1.85-1.95.79-.53,1.68-.79,2.74-.79,2.77,0,4.86,2.18,4.86,7v9.5h-4.36v-8.78c0-2.34-.68-3.7-2.12-3.7-1.03,0-1.77.79-2.06,1.75-.12.36-.18.89-.18,1.29v9.44h-4.36v-9.04c0-2.05-.65-3.43-2.06-3.43-1.15,0-1.83.99-2.09,1.82-.15.4-.18.86-.18,1.25v9.41h-4.36v-10.99Z"/>
    <path class="cls-1" d="m119.3,273.63c.06-1.06.12-3,.12-4.82v-18.62h4.47v9.21h.06c.85-1.39,2.35-2.28,4.36-2.28,3.44,0,5.98,3.2,5.95,8.15,0,5.81-3.3,8.71-6.59,8.71-1.68,0-3.3-.69-4.33-2.61h-.06l-.18,2.24h-3.8Zm4.59-6.87c0,.33.03.63.09.89.29,1.35,1.33,2.38,2.62,2.38,1.91,0,3.09-1.65,3.09-4.55,0-2.51-1-4.49-3.09-4.49-1.21,0-2.33,1.02-2.62,2.48-.06.3-.09.59-.09.92v2.38Z"/>
    <path class="cls-1" d="m145.2,273.63l-.27-1.62h-.09c-.94,1.29-2.41,1.98-4.12,1.98-2.91,0-4.65-2.38-4.65-4.95,0-4.19,3.36-6.21,8.45-6.17v-.23c0-.86-.41-2.08-2.62-2.08-1.47,0-3.03.56-3.97,1.22l-.82-3.23c1-.63,2.97-1.42,5.59-1.42,4.8,0,6.33,3.17,6.33,6.96v5.61c0,1.55.06,3.04.21,3.93h-4.03Zm-.53-7.62c-2.35-.03-4.18.59-4.18,2.54,0,1.29.77,1.91,1.77,1.91,1.12,0,2.03-.82,2.33-1.85.06-.26.09-.56.09-.86v-1.75Z"/>
    <path class="cls-1" d="m152.52,269.24c.82.56,2.53,1.22,3.86,1.22s1.91-.53,1.91-1.35-.44-1.22-2.12-1.85c-2.97-1.12-4.12-2.94-4.09-4.85,0-3,2.3-5.28,5.86-5.28,1.68,0,3.18.43,4.06.92l-.79,3.47c-.65-.4-1.88-.92-3.12-.92-1.09,0-1.71.5-1.71,1.32,0,.76.56,1.16,2.33,1.85,2.74,1.06,3.89,2.61,3.92,4.98,0,3-2.12,5.21-6.24,5.21-1.88,0-3.56-.46-4.65-1.12l.79-3.6Z"/>
    <path class="cls-1" d="m165.3,269.24c.82.56,2.53,1.22,3.86,1.22s1.91-.53,1.91-1.35-.44-1.22-2.12-1.85c-2.97-1.12-4.12-2.94-4.09-4.85,0-3,2.3-5.28,5.86-5.28,1.68,0,3.18.43,4.06.92l-.79,3.47c-.65-.4-1.88-.92-3.12-.92-1.09,0-1.71.5-1.71,1.32,0,.76.56,1.16,2.33,1.85,2.74,1.06,3.89,2.61,3.92,4.98,0,3-2.12,5.21-6.24,5.21-1.88,0-3.56-.46-4.65-1.12l.79-3.6Z"/>
    <path class="cls-1" d="m181.46,257.49l2.15,7.92c.24.96.53,2.14.71,3h.09c.21-.86.44-2.08.65-3l1.77-7.92h4.8l-3.36,10.63c-2.06,6.4-3.44,8.98-5.06,10.59-1.56,1.52-3.21,2.05-4.33,2.21l-.94-4.26c.56-.1,1.27-.4,1.94-.86.68-.4,1.41-1.19,1.85-2.01.15-.23.24-.5.24-.73,0-.17-.03-.43-.21-.82l-5.27-14.75h4.97Z"/>
    <path class="cls-1" d="m213.65,265.38c0,5.91-3.74,8.61-7.59,8.61-4.21,0-7.45-3.1-7.45-8.32s3.06-8.55,7.68-8.55,7.36,3.4,7.36,8.25Zm-10.42.17c0,2.77,1.03,4.85,2.94,4.85,1.74,0,2.85-1.95,2.85-4.85,0-2.41-.82-4.85-2.85-4.85-2.15,0-2.94,2.47-2.94,4.85Z"/>
    <path class="cls-1" d="m216.92,273.63v-12.44h-1.88v-3.7h1.88v-.63c0-1.95.53-4.09,1.83-5.41,1.12-1.19,2.68-1.62,3.97-1.62,1,0,1.77.13,2.38.33l-.18,3.86c-.38-.13-.85-.23-1.44-.23-1.47,0-2.09,1.29-2.09,2.87v.83h2.88v3.7h-2.86v12.44h-4.5Z"/>
    <path class="cls-1" d="m237.4,252.87v4.62h3.21v3.7h-3.21v5.84c0,1.95.41,2.84,1.77,2.84.56,0,1-.07,1.32-.13l.03,3.8c-.59.26-1.65.43-2.91.43-1.44,0-2.65-.56-3.36-1.39-.82-.96-1.24-2.51-1.24-4.79v-6.6h-1.91v-3.7h1.91v-3.5l4.38-1.12Z"/>
    <path class="cls-1" d="m243.2,250.19h4.47v9.21h.06c.47-.69,1.06-1.22,1.77-1.65.65-.4,1.5-.63,2.33-.63,2.85,0,5.03,2.21,5.03,7.06v9.44h-4.47v-8.88c0-2.11-.65-3.56-2.33-3.56-1.18,0-1.91.86-2.24,1.75-.12.33-.15.76-.15,1.12v9.57h-4.47v-23.43Z"/>
    <path class="cls-1" d="m263.89,267.16c.15,2.08,1.97,3.07,4.06,3.07,1.53,0,2.77-.23,3.97-.66l.59,3.4c-1.47.66-3.27.99-5.21.99-4.89,0-7.68-3.17-7.68-8.22,0-4.09,2.27-8.61,7.27-8.61,4.65,0,6.42,4.06,6.42,8.05,0,.86-.09,1.62-.15,1.98h-9.27Zm5.27-3.43c0-1.22-.47-3.27-2.53-3.27-1.88,0-2.65,1.91-2.77,3.27h5.3Z"/>
    <path class="cls-1" d="m34.07,287.68c1.44-.26,3.59-.46,5.98-.46,2.94,0,5,.5,6.42,1.75,1.18,1.06,1.83,2.61,1.83,4.65,0,2.84-1.79,4.79-3.5,5.48v.1c1.38.63,2.15,2.11,2.65,4.16.62,2.51,1.24,5.41,1.62,6.27h-4.59c-.32-.63-.79-2.44-1.38-5.18-.53-2.77-1.38-3.53-3.21-3.56h-1.35v8.75h-4.45v-21.95Zm4.45,9.57h1.77c2.24,0,3.56-1.25,3.56-3.2,0-2.05-1.24-3.07-3.3-3.1-1.09,0-1.71.1-2.03.17v6.14Z"/>
    <path class="cls-1" d="m54.82,303.16c.15,2.08,1.97,3.07,4.06,3.07,1.53,0,2.77-.23,3.97-.66l.59,3.4c-1.47.66-3.27.99-5.21.99-4.89,0-7.68-3.17-7.68-8.22,0-4.09,2.27-8.61,7.27-8.61,4.65,0,6.42,4.06,6.42,8.05,0,.86-.09,1.62-.15,1.98h-9.27Zm5.27-3.43c0-1.22-.47-3.27-2.53-3.27-1.88,0-2.65,1.91-2.77,3.27h5.3Z"/>
    <path class="cls-1" d="m66.92,298.9c0-2.11-.06-3.93-.12-5.41h3.89l.21,2.25h.06c1.06-1.72,2.71-2.61,4.8-2.61,3.15,0,5.97,3.07,5.97,8.22,0,5.88-3.33,8.65-6.53,8.65-1.74,0-3.09-.79-3.74-1.85h-.06v8.02h-4.47v-17.26Zm4.47,3.8c0,.4.03.76.09,1.06.29,1.35,1.33,2.38,2.62,2.38,1.94,0,3.09-1.82,3.09-4.55,0-2.58-1.03-4.52-3.03-4.52-1.27,0-2.38,1.06-2.68,2.54-.06.26-.09.59-.09.89v2.21Z"/>
    <path class="cls-1" d="m98.08,304.45c0,2.11.06,3.83.12,5.18h-3.89l-.21-2.28h-.09c-.56.99-1.91,2.64-4.5,2.64-2.91,0-5.06-2.05-5.06-7.03v-9.47h4.5v8.68c0,2.34.68,3.76,2.24,3.76,1.24,0,1.94-.96,2.24-1.75.12-.3.15-.69.15-1.09v-9.6h4.5v10.96Z"/>
    <path class="cls-1" d="m101.55,309.63c.06-1.06.12-3,.12-4.82v-18.62h4.47v9.21h.06c.85-1.39,2.35-2.28,4.36-2.28,3.44,0,5.98,3.2,5.95,8.15,0,5.81-3.3,8.71-6.59,8.71-1.68,0-3.3-.69-4.33-2.61h-.06l-.18,2.24h-3.8Zm4.59-6.87c0,.33.03.63.09.89.29,1.35,1.33,2.38,2.62,2.38,1.91,0,3.09-1.65,3.09-4.55,0-2.51-1-4.49-3.09-4.49-1.21,0-2.33,1.02-2.62,2.48-.06.3-.09.59-.09.92v2.38Z"/>
    <path class="cls-1" d="m119.27,286.19h4.47v23.43h-4.47v-23.43Z"/>
    <path class="cls-1" d="m131.98,289c0,1.39-.94,2.51-2.41,2.51s-2.35-1.12-2.33-2.51c-.03-1.45.91-2.54,2.35-2.54s2.36,1.09,2.38,2.54Zm-4.62,20.63v-16.14h4.47v16.14h-4.47Z"/>
    <path class="cls-1" d="m146.23,309.23c-.79.4-2.3.73-4,.73-4.65,0-7.62-3.17-7.62-8.25,0-4.72,2.88-8.58,8.24-8.58,1.18,0,2.47.23,3.41.63l-.71,3.73c-.53-.26-1.32-.5-2.5-.5-2.35,0-3.89,1.88-3.86,4.52,0,2.97,1.77,4.52,3.94,4.52,1.06,0,1.88-.2,2.56-.5l.53,3.7Z"/>
    <path class="cls-1" d="m168.86,301.38c0,5.91-3.74,8.61-7.59,8.61-4.21,0-7.45-3.1-7.45-8.32s3.06-8.55,7.68-8.55,7.36,3.4,7.36,8.25Zm-10.42.17c0,2.77,1.03,4.85,2.94,4.85,1.74,0,2.85-1.95,2.85-4.85,0-2.41-.82-4.85-2.85-4.85-2.15,0-2.94,2.47-2.94,4.85Z"/>
    <path class="cls-1" d="m172.13,309.63v-12.44h-1.88v-3.7h1.88v-.63c0-1.95.53-4.09,1.83-5.41,1.12-1.19,2.68-1.62,3.97-1.62,1,0,1.77.13,2.38.33l-.18,3.86c-.38-.13-.85-.23-1.44-.23-1.47,0-2.09,1.29-2.09,2.87v.83h2.88v3.7h-2.86v12.44h-4.5Z"/>
    <path class="cls-1" d="m187.75,287.38h4.45v9.83h.09c.44-.86.91-1.65,1.35-2.44l4.5-7.39h5.5l-6.56,9.47,6.92,12.77h-5.24l-4.86-9.6-1.71,2.34v7.26h-4.45v-22.25Z"/>
    <path class="cls-1" d="m219.39,301.38c0,5.91-3.74,8.61-7.59,8.61-4.21,0-7.45-3.1-7.45-8.32s3.06-8.55,7.68-8.55,7.36,3.4,7.36,8.25Zm-10.42.17c0,2.77,1.03,4.85,2.94,4.85,1.74,0,2.85-1.95,2.85-4.85,0-2.41-.82-4.85-2.85-4.85-2.15,0-2.94,2.47-2.94,4.85Z"/>
    <path class="cls-1" d="m222.16,298.8c0-2.38-.06-3.93-.12-5.31h3.86l.15,2.97h.12c.74-2.34,2.5-3.33,3.88-3.33.41,0,.62,0,.94.07v4.72c-.32-.07-.71-.13-1.21-.13-1.65,0-2.77.99-3.06,2.54-.06.33-.09.73-.09,1.12v8.19h-4.47v-10.83Z"/>
    <path class="cls-1" d="m236.55,303.16c.15,2.08,1.97,3.07,4.06,3.07,1.53,0,2.77-.23,3.97-.66l.59,3.4c-1.47.66-3.27.99-5.21.99-4.89,0-7.68-3.17-7.68-8.22,0-4.09,2.27-8.61,7.27-8.61,4.65,0,6.42,4.06,6.42,8.05,0,.86-.09,1.62-.15,1.98h-9.27Zm5.27-3.43c0-1.22-.47-3.27-2.53-3.27-1.88,0-2.65,1.91-2.77,3.27h5.3Z"/>
    <path class="cls-1" d="m256.83,309.63l-.27-1.62h-.09c-.94,1.29-2.41,1.98-4.12,1.98-2.91,0-4.65-2.38-4.65-4.95,0-4.19,3.36-6.21,8.45-6.17v-.23c0-.86-.41-2.08-2.62-2.08-1.47,0-3.03.56-3.97,1.22l-.82-3.23c1-.63,2.97-1.42,5.59-1.42,4.8,0,6.33,3.17,6.33,6.96v5.61c0,1.55.06,3.04.21,3.93h-4.03Zm-.53-7.62c-2.35-.03-4.18.59-4.18,2.54,0,1.29.77,1.91,1.77,1.91,1.12,0,2.03-.82,2.33-1.85.06-.26.09-.56.09-.86v-1.75Z"/>
    <path class="cls-1" d="m278.31,309.63l-.27-1.62h-.09c-.94,1.29-2.41,1.98-4.12,1.98-2.91,0-4.65-2.38-4.65-4.95,0-4.19,3.36-6.21,8.45-6.17v-.23c0-.86-.41-2.08-2.62-2.08-1.47,0-3.03.56-3.97,1.22l-.82-3.23c1-.63,2.97-1.42,5.59-1.42,4.8,0,6.33,3.17,6.33,6.96v5.61c0,1.55.06,3.04.21,3.93h-4.03Zm-.53-7.62c-2.35-.03-4.18.59-4.18,2.54,0,1.29.77,1.91,1.77,1.91,1.12,0,2.03-.82,2.33-1.85.06-.26.09-.56.09-.86v-1.75Z"/>
    <path class="cls-1" d="m285.67,298.64c0-2.01-.06-3.73-.12-5.15h3.89l.21,2.21h.09c.59-1.02,2.06-2.57,4.44-2.57,2.94,0,5.15,2.18,5.15,6.93v9.57h-4.47v-8.94c0-2.08-.65-3.5-2.27-3.5-1.24,0-1.97.96-2.27,1.88-.12.3-.18.79-.18,1.25v9.31h-4.47v-10.99Z"/>
    <path class="cls-1" d="m316.86,286.19v18.62c0,1.81.06,3.73.12,4.82h-3.97l-.21-2.38h-.06c-.91,1.81-2.65,2.74-4.5,2.74-3.41,0-6.15-3.27-6.15-8.28-.03-5.45,3-8.58,6.45-8.58,1.77,0,3.15.69,3.8,1.81h.06v-8.75h4.47Zm-4.47,14.13c0-.26-.03-.63-.06-.89-.27-1.35-1.24-2.48-2.62-2.48-2.03,0-3.09,2.05-3.09,4.59,0,2.74,1.21,4.46,3.06,4.46,1.29,0,2.33-.99,2.59-2.41.09-.36.12-.73.12-1.16v-2.11Z"/>
    <path class="cls-1" d="m54.54,323.68c1.38-.26,3.33-.46,6.06-.46s4.74.59,6.06,1.78c1.27,1.12,2.12,2.97,2.12,5.15s-.65,4.03-1.82,5.28c-1.53,1.62-3.8,2.34-6.45,2.34-.59,0-1.12-.03-1.53-.1v7.95h-4.45v-21.95Zm4.45,10.1c.38.1.85.13,1.5.13,2.38,0,3.86-1.35,3.86-3.63,0-2.05-1.27-3.27-3.5-3.27-.91,0-1.53.1-1.85.2v6.57Z"/>
    <path class="cls-1" d="m74.23,339.16c.15,2.08,1.97,3.07,4.06,3.07,1.53,0,2.77-.23,3.97-.66l.59,3.4c-1.47.66-3.27.99-5.21.99-4.89,0-7.68-3.17-7.68-8.22,0-4.09,2.27-8.61,7.27-8.61,4.65,0,6.42,4.06,6.42,8.05,0,.86-.09,1.62-.15,1.98h-9.27Zm5.27-3.43c0-1.22-.47-3.27-2.53-3.27-1.88,0-2.65,1.91-2.77,3.27h5.3Z"/>
    <path class="cls-1" d="m86.32,334.8c0-2.38-.06-3.93-.12-5.31h3.86l.15,2.97h.12c.74-2.34,2.5-3.33,3.88-3.33.41,0,.62,0,.94.07v4.72c-.32-.07-.71-.13-1.21-.13-1.65,0-2.77.99-3.06,2.54-.06.33-.09.73-.09,1.12v8.19h-4.47v-10.83Z"/>
    <path class="cls-1" d="m97.51,334.64c0-2.01-.06-3.73-.12-5.15h3.77l.21,2.18h.09c.62-1.02,1.88-2.54,4.36-2.54,1.85,0,3.33,1.06,3.94,2.74h.06c.53-.83,1.18-1.49,1.85-1.95.79-.53,1.68-.79,2.74-.79,2.77,0,4.86,2.18,4.86,7v9.5h-4.36v-8.78c0-2.34-.68-3.7-2.12-3.7-1.03,0-1.77.79-2.06,1.75-.12.36-.18.89-.18,1.29v9.44h-4.36v-9.04c0-2.05-.65-3.43-2.06-3.43-1.15,0-1.83.99-2.09,1.82-.15.4-.18.86-.18,1.25v9.41h-4.36v-10.99Z"/>
    <path class="cls-1" d="m131,345.63l-.27-1.62h-.09c-.94,1.29-2.41,1.98-4.12,1.98-2.91,0-4.65-2.38-4.65-4.95,0-4.19,3.36-6.21,8.45-6.17v-.23c0-.86-.41-2.08-2.62-2.08-1.47,0-3.03.56-3.97,1.22l-.82-3.23c1-.63,2.97-1.42,5.59-1.42,4.8,0,6.33,3.17,6.33,6.96v5.61c0,1.55.06,3.04.21,3.93h-4.03Zm-.53-7.62c-2.35-.03-4.18.59-4.18,2.54,0,1.29.77,1.91,1.77,1.91,1.12,0,2.03-.82,2.33-1.85.06-.26.09-.56.09-.86v-1.75Z"/>
    <path class="cls-1" d="m138.36,334.64c0-2.01-.06-3.73-.12-5.15h3.89l.21,2.21h.09c.59-1.02,2.06-2.57,4.44-2.57,2.94,0,5.15,2.18,5.15,6.93v9.57h-4.47v-8.94c0-2.08-.65-3.5-2.27-3.5-1.24,0-1.97.96-2.27,1.88-.12.3-.18.79-.18,1.25v9.31h-4.47v-10.99Z"/>
    <path class="cls-1" d="m159.05,339.16c.15,2.08,1.97,3.07,4.06,3.07,1.53,0,2.77-.23,3.97-.66l.59,3.4c-1.47.66-3.27.99-5.21.99-4.89,0-7.68-3.17-7.68-8.22,0-4.09,2.27-8.61,7.27-8.61,4.65,0,6.42,4.06,6.42,8.05,0,.86-.09,1.62-.15,1.98h-9.27Zm5.27-3.43c0-1.22-.47-3.27-2.53-3.27-1.88,0-2.65,1.91-2.77,3.27h5.3Z"/>
    <path class="cls-1" d="m171.14,334.64c0-2.01-.06-3.73-.12-5.15h3.89l.21,2.21h.09c.59-1.02,2.06-2.57,4.44-2.57,2.94,0,5.15,2.18,5.15,6.93v9.57h-4.47v-8.94c0-2.08-.65-3.5-2.27-3.5-1.24,0-1.97.96-2.27,1.88-.12.3-.18.79-.18,1.25v9.31h-4.47v-10.99Z"/>
    <path class="cls-1" d="m193.21,324.87v4.62h3.21v3.7h-3.21v5.84c0,1.95.41,2.84,1.77,2.84.56,0,1-.07,1.32-.13l.03,3.8c-.59.26-1.65.43-2.91.43-1.44,0-2.65-.56-3.36-1.39-.82-.96-1.24-2.51-1.24-4.79v-6.6h-1.91v-3.7h1.91v-3.5l4.38-1.12Z"/>
    <path class="cls-1" d="m221.88,337.11c-.09-2.67-.18-5.91-.18-9.14h-.09c-.62,2.84-1.44,6.01-2.21,8.61l-2.41,8.68h-3.5l-2.12-8.61c-.65-2.61-1.32-5.78-1.79-8.68h-.06c-.12,3-.21,6.44-.35,9.21l-.35,8.45h-4.15l1.27-22.25h5.98l1.94,7.43c.62,2.57,1.24,5.35,1.68,7.95h.09c.56-2.57,1.24-5.51,1.88-7.99l2.12-7.39h5.86l1.09,22.25h-4.39l-.29-8.52Z"/>
    <path class="cls-1" d="m234.65,325c0,1.39-.94,2.51-2.41,2.51s-2.35-1.12-2.33-2.51c-.03-1.45.91-2.54,2.35-2.54s2.36,1.09,2.38,2.54Zm-4.62,20.63v-16.14h4.47v16.14h-4.47Z"/>
    <path class="cls-1" d="m238.06,341.24c.82.56,2.53,1.22,3.86,1.22s1.91-.53,1.91-1.35-.44-1.22-2.12-1.85c-2.97-1.12-4.12-2.94-4.09-4.85,0-3,2.3-5.28,5.86-5.28,1.68,0,3.18.43,4.06.92l-.79,3.47c-.65-.4-1.88-.92-3.12-.92-1.09,0-1.71.5-1.71,1.32,0,.76.56,1.16,2.33,1.85,2.74,1.06,3.89,2.61,3.92,4.98,0,3-2.12,5.21-6.24,5.21-1.88,0-3.56-.46-4.65-1.12l.79-3.6Z"/>
    <path class="cls-1" d="m250.83,341.24c.82.56,2.53,1.22,3.86,1.22s1.91-.53,1.91-1.35-.44-1.22-2.12-1.85c-2.97-1.12-4.12-2.94-4.09-4.85,0-3,2.3-5.28,5.86-5.28,1.68,0,3.18.43,4.06.92l-.79,3.47c-.65-.4-1.88-.92-3.12-.92-1.09,0-1.71.5-1.71,1.32,0,.76.56,1.16,2.33,1.85,2.74,1.06,3.89,2.61,3.92,4.98,0,3-2.12,5.21-6.24,5.21-1.88,0-3.56-.46-4.65-1.12l.79-3.6Z"/>
    <path class="cls-1" d="m268.26,325c0,1.39-.94,2.51-2.41,2.51s-2.35-1.12-2.33-2.51c-.03-1.45.91-2.54,2.35-2.54s2.36,1.09,2.38,2.54Zm-4.62,20.63v-16.14h4.47v16.14h-4.47Z"/>
    <path class="cls-1" d="m285.92,337.38c0,5.91-3.74,8.61-7.59,8.61-4.21,0-7.45-3.1-7.45-8.32s3.06-8.55,7.68-8.55,7.36,3.4,7.36,8.25Zm-10.42.17c0,2.77,1.03,4.85,2.94,4.85,1.74,0,2.85-1.95,2.85-4.85,0-2.41-.82-4.85-2.85-4.85-2.15,0-2.94,2.47-2.94,4.85Z"/>
    <path class="cls-1" d="m288.68,334.64c0-2.01-.06-3.73-.12-5.15h3.89l.21,2.21h.09c.59-1.02,2.06-2.57,4.44-2.57,2.94,0,5.15,2.18,5.15,6.93v9.57h-4.47v-8.94c0-2.08-.65-3.5-2.27-3.5-1.24,0-1.97.96-2.27,1.88-.12.3-.18.79-.18,1.25v9.31h-4.47v-10.99Z"/>
    <path class="cls-1" d="m113.44,360.87v4.62h3.21v3.7h-3.21v5.84c0,1.95.41,2.84,1.77,2.84.56,0,1-.07,1.32-.13l.03,3.8c-.59.26-1.65.43-2.91.43-1.44,0-2.65-.56-3.36-1.39-.82-.96-1.24-2.51-1.24-4.79v-6.6h-1.91v-3.7h1.91v-3.5l4.38-1.12Z"/>
    <path class="cls-1" d="m133.31,373.38c0,5.91-3.74,8.61-7.59,8.61-4.21,0-7.45-3.1-7.45-8.32s3.06-8.55,7.68-8.55,7.36,3.4,7.36,8.25Zm-10.42.17c0,2.77,1.03,4.85,2.94,4.85,1.74,0,2.85-1.95,2.85-4.85,0-2.41-.82-4.85-2.85-4.85-2.15,0-2.94,2.47-2.94,4.85Z"/>
    <path class="cls-1" d="m147.02,360.87v4.62h3.21v3.7h-3.21v5.84c0,1.95.41,2.84,1.77,2.84.56,0,1-.07,1.32-.13l.03,3.8c-.59.26-1.65.43-2.91.43-1.44,0-2.65-.56-3.36-1.39-.82-.96-1.24-2.51-1.24-4.79v-6.6h-1.91v-3.7h1.91v-3.5l4.38-1.12Z"/>
    <path class="cls-1" d="m152.82,358.19h4.47v9.21h.06c.47-.69,1.06-1.22,1.77-1.65.65-.4,1.5-.63,2.33-.63,2.85,0,5.03,2.21,5.03,7.06v9.44h-4.47v-8.88c0-2.11-.65-3.56-2.33-3.56-1.18,0-1.91.86-2.24,1.75-.12.33-.15.76-.15,1.12v9.57h-4.47v-23.43Z"/>
    <path class="cls-1" d="m173.51,375.16c.15,2.08,1.97,3.07,4.06,3.07,1.53,0,2.77-.23,3.97-.66l.59,3.4c-1.47.66-3.27.99-5.21.99-4.89,0-7.68-3.17-7.68-8.22,0-4.09,2.27-8.61,7.27-8.61,4.65,0,6.42,4.06,6.42,8.05,0,.86-.09,1.62-.15,1.98h-9.27Zm5.27-3.43c0-1.22-.47-3.27-2.53-3.27-1.88,0-2.65,1.91-2.77,3.27h5.3Z"/>
    <path class="cls-1" d="m196.2,359.38v22.25h-4.5v-22.25h4.5Z"/>
    <path class="cls-1" d="m216.86,373.11c-.09-2.67-.18-5.91-.18-9.14h-.09c-.62,2.84-1.44,6.01-2.21,8.61l-2.41,8.68h-3.5l-2.12-8.61c-.65-2.61-1.32-5.78-1.79-8.68h-.06c-.12,3-.21,6.44-.35,9.21l-.35,8.45h-4.15l1.27-22.25h5.98l1.94,7.43c.62,2.57,1.24,5.35,1.68,7.95h.09c.56-2.57,1.24-5.51,1.88-7.99l2.12-7.39h5.86l1.09,22.25h-4.39l-.29-8.52Z"/>
    <path class="cls-1" d="m243.14,370.27c0,7.29-3.94,11.72-9.74,11.72s-9.33-4.98-9.33-11.32c0-6.67,3.8-11.65,9.65-11.65s9.42,5.12,9.42,11.25Zm-14.33.3c0,4.36,1.82,7.43,4.83,7.43s4.77-3.23,4.77-7.56c0-3.99-1.71-7.43-4.8-7.43s-4.8,3.23-4.8,7.56Z"/>
  </g>
</svg>