<?xml version="1.0" encoding="UTF-8"?>
<svg id="Layer_1" data-name="Layer 1" xmlns="http://www.w3.org/2000/svg" viewBox="0 0 143.72 111.4">
  <defs>
    <style>
      .cls-1 {
        fill: #fff;
      }

      .cls-2 {
        fill: #e30e21;
      }
    </style>
  </defs>
  <g>
    <path class="cls-2" d="m1.54,21.81v-.29h7.21v.86c0,2.98,1.49,4.18,8.02,4.18,5.76,0,7.11-.86,7.11-3.03,0-1.97-1.1-2.69-4.42-3.27l-9.03-1.3c-5.76-.91-9.17-3.79-9.17-9.03C1.25,5.09,5.19,0,16,0c9.9,0,14.51,4.56,14.51,11.34v.29h-7.25v-.67c0-3.07-1.59-4.37-7.97-4.37-5.19,0-6.77,1.01-6.77,3.07,0,1.87,1.06,2.55,3.75,3.03l9.03,1.44c7.21,1.15,9.8,4.66,9.8,9.08,0,5.24-4.08,9.94-14.31,9.94S1.54,29.3,1.54,21.81Z"/>
    <path class="cls-2" d="m34.01,32.66V.48h7.21v15.47h.38c.77-4.08,3.6-7.83,9.75-7.83,6.48,0,9.66,4.23,9.66,9.8v14.75h-7.21v-12.59c0-4.04-1.73-5.48-6.24-5.48-4.85,0-6.34,1.97-6.34,6v12.06h-7.21Z"/>
    <path class="cls-2" d="m63.74,26.71c0-3.55,2.64-5.76,7.78-6.29l10.33-1.06v-.91c0-3.12-1.39-3.99-5.24-3.99s-5.14.96-5.14,3.7v.19h-7.25v-.14c0-5.96,5-10.09,12.92-10.09s11.82,4.13,11.82,10.42v14.12h-6.73v-5.52h-.38c-1.1,3.75-4.47,6-9.8,6s-8.31-2.4-8.31-6.44Zm10.38,1.35c4.9,0,7.54-1.15,7.73-4.56l-8.36.96c-1.73.14-2.5.62-2.5,1.78,0,1.3,1.01,1.83,3.12,1.83Z"/>
    <path class="cls-2" d="m92.61,32.66V8.6h6.68v6.39h.43c.67-3.89,3.22-6.87,8.07-6.87,5.38,0,7.59,3.7,7.59,8.41v3.99h-7.21v-2.5c0-2.64-1.06-3.79-3.99-3.79-3.22,0-4.37,1.49-4.37,4.52v13.93h-7.21Z"/>
    <path class="cls-2" d="m117.26,20.66c0-7.69,5.43-12.54,13.35-12.54s13.11,4.13,13.11,11.67c0,.86-.1,1.49-.19,2.31h-19.6c.19,3.7,1.92,5.28,6.58,5.28,4.28,0,5.76-1.1,5.76-3.17v-.48h7.21v.53c0,5.24-5.09,8.89-12.73,8.89-8.02,0-13.5-3.94-13.5-12.49Zm6.77-2.35h12.78c-.19-3.17-2.11-4.56-6.34-4.56s-6.1,1.44-6.44,4.56Z"/>
  </g>
  <path class="cls-1" d="m6.39,73.75v-6.53h5.91c1.78,0,2.55-.48,3.03-1.54L3.56,41.52h8.17l5.09,11,2.02,5.67h.48l1.92-5.72,4.56-10.95h8.02l-11.91,25.8c-2.31,5.04-5.52,6.44-11.58,6.44h-3.94Z"/>
  <path class="cls-1" d="m34.63,53.57c0-7.69,5.52-12.54,13.74-12.54s13.74,4.85,13.74,12.54-5.52,12.49-13.74,12.49-13.74-4.9-13.74-12.49Z"/>
  <path class="cls-1" d="m64.99,56.5v-14.99h7.21v12.59c0,3.89,1.63,5.52,6.2,5.52s6.39-1.83,6.39-5.91v-12.2h7.21v24.07h-6.73v-7.35h-.38c-.62,4.04-3.55,7.83-9.9,7.83-6.77,0-9.99-4.18-9.99-9.56Z"/>
  <path class="cls-1" d="m95.69,65.58v-24.07h6.68v6.39h.43c.67-3.89,3.22-6.87,8.07-6.87,5.38,0,7.59,3.7,7.59,8.41v3.99h-7.21v-2.5c0-2.64-1.06-3.79-3.99-3.79-3.22,0-4.37,1.49-4.37,4.52v13.93h-7.21Z"/>
  <path class="cls-2" d="m53.42,52.39l-7.1-4.67c-.84-.55-1.96.05-1.96,1.06,0,6.58,0,4.48,0,9.33,0,1.01,1.12,1.61,1.96,1.06l7.11-4.67c.76-.5.76-1.62,0-2.12Z"/>
  <path class="cls-2" d="m.43,94.97v-.14h7.21v.43c0,2.16,1.35,2.74,5.43,2.74,3.84,0,4.76-.62,4.76-2.07,0-1.35-.72-1.73-3.55-2.11l-6.77-.82c-4.8-.53-7.49-2.69-7.49-6.73s3.6-7.59,11.86-7.59,12.35,2.98,12.35,8.84v.14h-7.21v-.29c0-1.97-.96-2.98-5.38-2.98-3.6,0-4.52.62-4.52,2.16,0,1.25.67,1.78,3.84,2.16l5.14.62c6.44.72,8.84,2.88,8.84,6.87,0,4.52-4.47,7.49-11.91,7.49-8.12,0-12.59-3.17-12.59-8.74Z"/>
  <path class="cls-2" d="m38.86,103.23c-5.62,0-9.03-2.64-9.03-8.69v-9.42h-3.79v-5.96h3.79v-4.66h7.21v4.66h7.78v5.96h-7.78v8.6c0,2.4.91,3.03,3.46,3.03h4.32v6.48h-5.96Z"/>
  <path class="cls-2" d="m46.6,91.22c0-7.69,5.52-12.54,13.74-12.54s13.74,4.85,13.74,12.54-5.52,12.49-13.74,12.49-13.74-4.9-13.74-12.49Zm20.32,0c0-4.23-1.73-6.2-6.58-6.2s-6.58,1.97-6.58,6.2,1.68,6.1,6.58,6.1,6.58-1.87,6.58-6.1Z"/>
  <path class="cls-2" d="m77,103.23v-24.07h6.68v6.39h.43c.67-3.89,3.22-6.87,8.07-6.87,5.38,0,7.59,3.7,7.59,8.41v3.99h-7.21v-2.5c0-2.64-1.06-3.79-3.99-3.79-3.22,0-4.37,1.49-4.37,4.52v13.93h-7.21Z"/>
  <path class="cls-2" d="m103.04,111.4v-6.53h5.91c1.78,0,2.55-.48,3.03-1.54l-11.77-24.16h8.17l5.09,11,2.02,5.67h.48l1.92-5.72,4.56-10.95h8.02l-11.91,25.8c-2.31,5.04-5.52,6.44-11.58,6.44h-3.94Z"/>
  <path class="cls-2" d="m141.99,71.05v3.36c0,3.7-1.01,14.36-1.01,18.25h-7.25c0-3.94-1.01-14.55-1.01-18.25v-3.36"/>
  <rect class="cls-2" x="133.25" y="95.4" width="8.21" height="7.83"/>
</svg>