<?xml version="1.0" encoding="UTF-8"?>
<svg id="Layer_1" data-name="Layer 1" xmlns="http://www.w3.org/2000/svg" viewBox="0 0 38.63 22.58">
  <defs>
    <style>
      .cls-1 {
        fill: #fff;
      }
    </style>
  </defs>
  <path class="cls-1" d="m36.63,4H2c-1.1,0-2-.9-2-2S.9,0,2,0h34.63c1.1,0,2,.9,2,2s-.9,2-2,2Z"/>
  <path class="cls-1" d="m36.63,13.29H2c-1.1,0-2-.9-2-2s.9-2,2-2h34.63c1.1,0,2,.9,2,2s-.9,2-2,2Z"/>
  <path class="cls-1" d="m36.63,22.58H2c-1.1,0-2-.9-2-2s.9-2,2-2h34.63c1.1,0,2,.9,2,2s-.9,2-2,2Z"/>
</svg>