<?xml version="1.0" encoding="UTF-8"?>
<svg id="Layer_1" data-name="Layer 1" xmlns="http://www.w3.org/2000/svg" viewBox="0 0 298.12 298.12">
  <defs>
    <style>
      .cls-1 {
        fill: #001a64;
      }

      .cls-2, .cls-3, .cls-4 {
        fill: #fff;
      }

      .cls-3 {
        font-size: 42.1px;
        stroke-width: 2px;
      }

      .cls-3, .cls-4 {
        font-family: Quicksand-Bold, Quicksand;
        font-weight: 700;
        stroke: #fff;
        stroke-miterlimit: 10;
      }

      .cls-4 {
        font-size: 31.58px;
      }
    </style>
  </defs>
  <circle class="cls-1" cx="149.06" cy="149.06" r="149.06"/>
  <g>
    <g>
      <path class="cls-2" d="m231.91,187.78h-46.39v-19.7c0-1.74-.69-3.41-1.93-4.64-1.23-1.23-2.9-1.92-4.64-1.92h-65.66c-1.74,0-3.41.69-4.64,1.92-1.23,1.23-1.92,2.9-1.92,4.64v6.57h-45.96c-1.74,0-3.41.69-4.64,1.92-1.23,1.23-1.92,2.9-1.92,4.64v45.96c0,1.74.69,3.41,1.92,4.64,1.23,1.23,2.9,1.92,4.64,1.93h171.14c1.74,0,3.41-.69,4.64-1.93,1.23-1.23,1.92-2.9,1.92-4.64v-32.83c0-1.74-.69-3.41-1.92-4.64-1.23-1.23-2.9-1.92-4.64-1.92h0Zm-171.15,39.4v-45.96h45.96v45.96h-45.96Zm52.53,0v-59.09h65.66v59.09s-65.66,0-65.66,0Zm118.62,0h-46.39v-32.83h46.39v32.83Z"/>
      <path class="cls-2" d="m152.69,209.25h-3.28v-26.53c0-1.35-.82-2.56-2.08-3.05-1.25-.5-2.68-.18-3.6.8l-5.66,6.03h0c-1.22,1.32-1.15,3.38.16,4.62,1.31,1.24,3.37,1.19,4.62-.11v18.24h-3.28c-1.81,0-3.28,1.47-3.28,3.28s1.47,3.28,3.28,3.28h13.13c1.81,0,3.28-1.47,3.28-3.28s-1.47-3.28-3.28-3.28h0Z"/>
      <path class="cls-2" d="m160.39,151.21l-14.27-7.88-14.27,7.88h0c-1.22.67-2.72.58-3.85-.23-1.14-.81-1.71-2.2-1.48-3.57l2.76-16.9-11.67-11.95c-.95-.98-1.28-2.41-.85-3.71.43-1.3,1.55-2.25,2.9-2.46l15.99-2.44,7.18-15.29c.6-1.27,1.88-2.09,3.28-2.09,1.41,0,2.69.81,3.28,2.09h0s7.18,15.29,7.18,15.29l15.99,2.44c1.35.21,2.47,1.16,2.9,2.46.43,1.3.1,2.73-.85,3.71l-11.67,11.95,2.76,16.91h0c.23,1.37-.35,2.76-1.48,3.56-1.13.81-2.63.89-3.85.22h0Zm-16.27-14.28h0c1.16-.64,2.56-.69,3.76-.13l10.39,5.74-2.03-12.42h0c-.19-1.15.18-2.32,1-3.15l8.73-8.94-11.92-1.82h0c-1.2-.19-2.24-.96-2.75-2.07l-5.18-11.03-5.19,11.05h0c-.51,1.09-1.54,1.86-2.73,2.05l-11.93,1.82,8.74,8.95h0c.81.83,1.18,2,.99,3.15l-2.03,12.42,10.15-5.61Z"/>
      <path class="cls-2" d="m108.31,131.17h-19.11,0c-1.81,0-3.28-1.47-3.28-3.28s1.47-3.28,3.28-3.28h19.11,0c1.81,0,3.28,1.47,3.28,3.28s-1.47,3.28-3.28,3.28Z"/>
      <path class="cls-2" d="m203.04,131.17h-19.11c-1.81,0-3.28-1.47-3.28-3.28s1.47-3.28,3.28-3.28h19.11c1.81,0,3.28,1.47,3.28,3.28s-1.47,3.28-3.28,3.28Z"/>
      <path class="cls-2" d="m142.84,82.56v-10.98c0-1.81,1.47-3.28,3.28-3.28s3.28,1.47,3.28,3.28v10.98c0,1.81-1.47,3.28-3.28,3.28s-3.28-1.47-3.28-3.28Z"/>
      <path class="cls-2" d="m105.1,114.86l-21.65-9.15c-1.65-.71-2.42-2.63-1.72-4.29.7-1.66,2.61-2.45,4.28-1.76l21.65,9.15h0c1.66.71,2.43,2.63,1.73,4.3-.7,1.66-2.62,2.45-4.29,1.75h0Z"/>
      <path class="cls-2" d="m206.24,156.11l-21.65-9.15c-1.66-.71-2.43-2.63-1.72-4.29.7-1.66,2.61-2.45,4.28-1.76l21.65,9.15c1.65.71,2.42,2.63,1.72,4.29-.7,1.66-2.61,2.45-4.28,1.76h0Z"/>
      <path class="cls-2" d="m184.34,108.09l21.78-8.84h0c1.68-.66,3.57.15,4.25,1.82.68,1.67-.12,3.57-1.78,4.27l-21.78,8.84c-1.68.67-3.58-.15-4.26-1.82-.68-1.67.12-3.58,1.79-4.27h0Z"/>
      <path class="cls-2" d="m86.13,156.52c-1.68.67-3.58-.15-4.26-1.82-.68-1.67.12-3.58,1.79-4.27l21.78-8.84c1.68-.66,3.57.15,4.25,1.82.68,1.67-.12,3.57-1.78,4.27l-21.78,8.84Z"/>
      <path class="cls-2" d="m112.76,99.67l-8.84-10.06c-1.18-1.36-1.03-3.42.32-4.61,1.35-1.19,3.41-1.07,4.61.27l8.84,10.06h0c1.18,1.36,1.03,3.42-.32,4.61-1.35,1.19-3.41,1.07-4.61-.28h0Z"/>
      <path class="cls-2" d="m174.34,94.52l10.06-8.84h0c1.36-1.18,3.42-1.04,4.62.31,1.19,1.35,1.07,3.42-.28,4.62l-10.06,8.84c-1.36,1.19-3.43,1.06-4.63-.3-1.19-1.36-1.06-3.43.29-4.63h0Z"/>
      <path class="cls-2" d="m123.52,81.56l-7.01-15.32h0c-.73-1.64,0-3.57,1.63-4.32,1.64-.75,3.57-.04,4.34,1.59l7.01,15.32h0c.74,1.65,0,3.58-1.63,4.32-1.64.75-3.57.04-4.34-1.59h0Z"/>
      <path class="cls-2" d="m162.89,79.15l5.88-15.8c.64-1.68,2.52-2.53,4.21-1.9,1.69.63,2.55,2.5,1.94,4.19l-5.88,15.8c-.64,1.69-2.52,2.54-4.21,1.91-1.69-.63-2.56-2.51-1.94-4.2h0Z"/>
    </g>
    <text class="cls-3" transform="translate(71.46 218.45)"><tspan x="0" y="0">2</tspan></text>
    <text class="cls-4" transform="translate(199.48 220.52)"><tspan x="0" y="0">3</tspan></text>
  </g>
</svg>