<?xml version="1.0" encoding="UTF-8"?>
<svg id="Layer_1" data-name="Layer 1" xmlns="http://www.w3.org/2000/svg" viewBox="0 0 298.12 298.12">
  <defs>
    <style>
      .cls-1 {
        fill: #001a64;
      }

      .cls-2 {
        fill: #fff;
        stroke: #fff;
        stroke-miterlimit: 10;
        stroke-width: 2px;
      }
    </style>
  </defs>
  <circle class="cls-1" cx="149.06" cy="149.06" r="149.06"/>
  <path class="cls-2" d="m84.73,225.59h0c-2.21-2.47-3.55-5.73-3.55-9.29v-85.7l-4.55-16.95c-.98-3.68-.38-7.54,1.41-10.6,1.79-3.09,4.75-5.52,8.47-6.52l107.49-28.79c7.42-2,15.11,2.45,17.11,9.87l4.62,17.26c.35,1.24-.41,2.53-1.65,2.86l-112.77,30.22h116.76c1.3,0,2.34,1.06,2.34,2.36v85.99c0,3.56-1.34,6.81-3.55,9.29h0c3.08,0-4.76,4.68-7.84,4.68h-116.03m2.1-4.68h111.4c5.07-.03,9.24-4.2,9.24-9.29v-54.16s-129.86,0-129.86,0v54.16c0,5.08,4.14,9.25,9.22,9.29h0Zm75.31-28.83l-31.34,18.1c-1.56.9-3.49-.25-3.49-2.03h-.01v-36.33c0-1.75,1.92-3.04,3.65-1.95l31.33,18.09c1.61.94,1.52,3.3-.13,4.12h0Zm-30.16,12.03l24.45-14.12-24.45-14.12v28.24Zm-54.36-51.34h15.47l17.15-24.81h-32.61v24.81h0Zm21.14,0h32.37l17.15-24.81h-32.37l-17.15,24.81Zm38.05,0h32.37l17.15-24.81h-32.37l-17.15,24.81Zm38.05,0h32.61v-24.81h-15.47l-17.14,24.81Zm-10.43-79.17l23,19.54,14.94-4.01-4.02-14.99c-1.32-4.96-6.44-7.9-11.38-6.58l-22.53,6.03Zm17.5,21.01l-23-19.53-31.26,8.37,23,19.53,31.26-8.37Zm-36.75,9.86l-23-19.54-31.26,8.37,23,19.54,31.26-8.37Zm-36.76,9.84l-23-19.54-5.96,1.6c-2.46.66-4.44,2.28-5.64,4.34-1.19,2.05-1.59,4.56-.92,7.04l4.02,15,31.5-8.44Z"/>
</svg>