<?xml version="1.0" encoding="UTF-8"?>
<svg id="Layer_1" data-name="Layer 1" xmlns="http://www.w3.org/2000/svg" viewBox="0 0 298.12 298.12">
  <defs>
    <style>
      .cls-1 {
        fill: #001a64;
      }

      .cls-2 {
        fill: #fff;
      }

      .cls-3 {
        fill: #e30e21;
      }
    </style>
  </defs>
  <circle class="cls-1" cx="149.06" cy="149.06" r="149.06"/>
  <g>
    <path class="cls-2" d="m220.15,58.25h-63.56c-7.44,0-14.57,2.95-19.83,8.21-5.26,5.26-8.21,12.39-8.21,19.83v24.77c-1.78.31-3.44,1.1-4.79,2.3-1.35,1.2-2.34,2.75-2.86,4.49-.07.24-.12.48-.16.72l-1.28,9.27h0c-.38,2.71-1.17,5.35-2.34,7.83l-12.56,26.41c-1.68,3.93-5.05,6.88-9.17,8.01-.13-2.47-1.21-4.79-3.01-6.47-1.8-1.69-4.19-2.61-6.66-2.58h-20.03c-2.54-.05-5,.91-6.83,2.67-1.83,1.76-2.88,4.18-2.93,6.72v76.68c.04,2.53,1.08,4.93,2.9,6.69,1.81,1.76,4.25,2.73,6.78,2.7h20.03c2.53.04,4.97-.93,6.79-2.69,1.82-1.76,2.86-4.17,2.9-6.7v-1.18l4.19,2.5c5.18,3.12,11.1,4.76,17.14,4.77h33.44c4.82.02,9.53-1.49,13.44-4.32,3.91-2.82,6.82-6.82,8.31-11.4l14.6-44.36c2.12-6.48,1.23-13.58-2.43-19.33-3.66-5.76-9.71-9.58-16.48-10.4-9.61-1.18-18.38-1.9-24.33-2h0c-.2-3.37.13-6.75.98-10.01,3.85,1.9,8.08,2.9,12.38,2.9h26.37c4.99,12.02,14.72,18.96,22.33,22.85,2.1,1.06,4.53,1.23,6.76.48,2.23-.75,4.06-2.36,5.09-4.47,1.03-2.11,1.18-4.55.4-6.77-1.29-3.87-1.62-7.99-.98-12.02h3.6c7.44,0,14.57-2.95,19.83-8.21,5.26-5.26,8.21-12.39,8.21-19.83v-39.97c.02-7.45-2.93-14.59-8.19-19.86-5.26-5.27-12.4-8.23-19.85-8.23h0ZM85.43,246.5h-19.49v-75.42h19.49v75.42Zm80.89-73.1c3.8.47,7.19,2.61,9.25,5.85,2.05,3.24,2.55,7.22,1.35,10.86l-14.58,44.3c-.84,2.56-2.47,4.79-4.65,6.37-2.18,1.58-4.81,2.43-7.5,2.42h-33.44c-4.23,0-8.39-1.14-12.02-3.32l-9.33-5.61v-53.91h.4c7.93-1.38,14.65-6.64,17.88-14.02l12.36-26.35c1.61-3.4,2.69-7.03,3.2-10.75l1.14-8.19h0c2.65.5,4.98,2.06,6.47,4.3,2.16,3.48,2.12,8.85,0,15.52-3.36,10.15-4.41,18.2-3.1,23.93.42,1.88,1.48,3.57,2.99,4.77,1.51,1.2,3.39,1.85,5.32,1.84,8.12.22,16.22.89,24.27,2h0Zm71.86-47.2c0,4.78-1.9,9.37-5.28,12.74-3.38,3.38-7.97,5.28-12.75,5.28h-7.65c-2.25,0-4.22,1.5-4.83,3.67-1.77,6.14-1.94,12.63-.48,18.84-7.52-4.11-13.24-10.88-16.02-18.99-.66-2.09-2.6-3.51-4.79-3.5h-29.8c-3.39,0-6.72-.96-9.59-2.76,2.36-8.55,1.82-15.76-1.64-21.37h0c-1.7-2.73-4.05-4.98-6.85-6.57v-27.2c0-4.78,1.9-9.36,5.28-12.74,3.38-3.38,7.96-5.28,12.74-5.28h63.62c4.78,0,9.37,1.9,12.75,5.28,3.38,3.38,5.28,7.96,5.28,12.74v39.85Z"/>
    <g>
      <ellipse class="cls-3" cx="182.28" cy="110.1" rx="17.52" ry="26.42" transform="translate(-29.1 135.89) rotate(-38.09)"/>
      <ellipse class="cls-3" cx="196.07" cy="108.75" rx="26.42" ry="17.52" transform="translate(10.35 234.36) rotate(-63.09)"/>
    </g>
  </g>
</svg>