<?xml version="1.0" encoding="UTF-8"?>
<svg id="Layer_1" data-name="Layer 1" xmlns="http://www.w3.org/2000/svg" viewBox="0 0 298.12 298.12">
  <defs>
    <style>
      .cls-1 {
        fill: #001a64;
      }

      .cls-2 {
        fill: #fff;
      }
    </style>
  </defs>
  <circle class="cls-1" cx="149.06" cy="149.06" r="149.06"/>
  <g>
    <path class="cls-2" d="m216.85,91.29c-.07-.34-.18-.67-.34-.98l-.08-.16c-.17-.31-.39-.6-.64-.86l-27.83-27.79c-.26-.25-.54-.47-.86-.64l-.22-.12c-.31-.15-.64-.27-.98-.34-.25-.02-.49-.02-.74,0h-100.03c-2.21,0-4,1.79-4,4v168.75c0,1.06.42,2.08,1.17,2.82.75.75,1.77,1.17,2.83,1.17h127.87c1.06,0,2.08-.42,2.82-1.17.75-.75,1.17-1.77,1.17-2.82V92.13c-.02-.28-.06-.56-.14-.84h0Zm-27.73-17.32l14.16,14.16h-14.16v-14.16Zm-100,155.18V68.32h92v23.81c0,1.06.42,2.08,1.17,2.83.75.75,1.77,1.17,2.82,1.17h23.82v133.02h-119.82Z"/>
    <path class="cls-2" d="m189.22,139.5h-80.39c-2.21,0-4,1.79-4,4s1.79,4,4,4h80.39c2.21,0,4-1.79,4-4s-1.79-4-4-4Z"/>
    <path class="cls-2" d="m149.02,124.76h39.96c2.21,0,4-1.79,4-4s-1.79-4-4-4h-39.96c-2.21,0-4,1.79-4,4s1.79,4,4,4Z"/>
    <path class="cls-2" d="m189.22,157.98h-80.39c-2.21,0-4,1.79-4,4s1.79,4,4,4h80.39c2.21,0,4-1.79,4-4s-1.79-4-4-4Z"/>
    <path class="cls-2" d="m189.22,176.46h-80.39c-2.21,0-4,1.79-4,4s1.79,4,4,4h80.39c2.21,0,4-1.79,4-4s-1.79-4-4-4Z"/>
    <path class="cls-2" d="m189.22,194.95h-80.39c-2.21,0-4,1.79-4,4s1.79,4,4,4h80.39c2.21,0,4-1.79,4-4s-1.79-4-4-4Z"/>
    <path class="cls-2" d="m108.82,124.76h23.58c1.06,0,2.08-.42,2.82-1.17.75-.75,1.17-1.77,1.17-2.82v-31.23c0-1.06-.42-2.08-1.17-2.83-.75-.75-1.77-1.17-2.82-1.17h-23.58c-2.21,0-4,1.79-4,4v31.23c0,1.06.42,2.08,1.17,2.82.75.75,1.77,1.17,2.82,1.17h0Zm4-31.23h15.58v23.24h-15.58v-23.24Z"/>
  </g>
</svg>