<?xml version="1.0" encoding="UTF-8"?>
<svg id="Layer_1" data-name="Layer 1" xmlns="http://www.w3.org/2000/svg" viewBox="0 0 224.57 224.56">
  <defs>
    <style>
      .cls-1 {
        fill: #fff;
        fill-rule: evenodd;
      }
    </style>
  </defs>
  <path class="cls-1" d="m148.9,148.9h-43.95c-4.03,0-7.32-3.29-7.32-7.32v-21.97h51.27c12.11,0,21.97-9.86,21.97-21.97s-9.85-21.97-21.97-21.97h-51.27v-21.97c0-12.11-9.85-21.97-21.97-21.97s-21.97,9.85-21.97,21.97v87.88c0,28.26,22.99,51.25,51.25,51.25h43.95c12.11,0,21.97-9.85,21.97-21.97s-9.85-21.96-21.96-21.96h0Zm0,29.29h-43.95c-20.18,0-36.6-16.43-36.6-36.62V53.69c0-4.03,3.28-7.32,7.32-7.32s7.33,3.29,7.33,7.32v29.3c0,4.04,3.28,7.32,7.32,7.32h58.58c4.04,0,7.32,3.28,7.32,7.33s-3.28,7.32-7.32,7.32h-58.58c-4.04,0-7.32,3.28-7.32,7.32v29.3c0,12.11,9.85,21.97,21.95,21.97h43.95c4.03,0,7.32,3.29,7.32,7.32s-3.28,7.34-7.31,7.34h0Z"/>
  <path class="cls-1" d="m185.52,0H39.06C17.52,0,0,17.51,0,39.05v146.45c0,21.53,17.52,39.05,39.06,39.05h146.46c21.53,0,39.05-17.52,39.05-39.05V39.06C224.57,17.51,207.05,0,185.52,0h0Zm24.4,185.5c0,13.46-10.94,24.41-24.4,24.41H39.06c-13.46,0-24.41-10.95-24.41-24.41V39.06c0-13.46,10.95-24.42,24.41-24.42h146.46c13.46,0,24.4,10.96,24.4,24.42v146.45Z"/>
</svg>