<?xml version="1.0" encoding="UTF-8"?>
<svg id="Work" xmlns="http://www.w3.org/2000/svg" xmlns:xlink="http://www.w3.org/1999/xlink" viewBox="0 0 709.53 604.52">
  <defs>
    <style>
      .cls-1 {
        fill: none;
      }

      .cls-2 {
        clip-path: url(#clippath);
      }

      .cls-3 {
        fill: #001b60;
      }

      .cls-4 {
        fill: #fff;
      }

      .cls-5 {
        fill: #d7302e;
      }

      .cls-6 {
        fill: #07217b;
      }

      .cls-7 {
        fill: #181e3f;
      }

      .cls-8 {
        fill: #959393;
      }

      .cls-9 {
        fill: #595757;
      }
    </style>
    <clipPath id="clippath">
      <rect class="cls-1" x="-3092.19" y="-1529.56" width="2304" height="1529.56"/>
    </clipPath>
  </defs>
  <g>
    <g>
      <g>
        <path class="cls-8" d="m183.61,466.86c0,1.53-.25,2.86-.76,3.99-.5,1.14-1.22,2.07-2.14,2.81-.92.73-2.03,1.28-3.32,1.64-1.29.36-2.72.54-4.27.54s-2.98-.18-4.27-.54c-1.29-.36-2.4-.91-3.32-1.64-.92-.73-1.63-1.67-2.14-2.81-.5-1.14-.76-2.47-.76-3.99v-4.14c0-.69.13-1.43.39-2.22.26-.79.56-1.42.91-1.88h-2.72v-5.44h8.33v-3.93h7.17v3.93h8.33v5.44h-2.72c.32.46.61,1.09.88,1.88.27.79.41,1.53.41,2.22v4.14Zm10.88,24.13h-30.78v-13.38h7.17v7.42h23.61v5.96Zm-18.04-28.1c0-1.78-.25-3.01-.76-3.69-.5-.68-1.36-1.01-2.57-1.01s-2.06.34-2.57,1.01c-.5.68-.76,1.91-.76,3.69v2.81c0,1.78.25,3.02.76,3.69.5.68,1.36,1.01,2.57,1.01s2.07-.34,2.57-1.01c.5-.68.76-1.91.76-3.69v-2.81Zm17.78,18.48h-7.17v-29.66h7.17v9.84h4.66v6.04h-4.66v13.77Z"/>
        <path class="cls-8" d="m235.07,473.73h-7.17v-4.1h-6.43c-1.01,1.09-2.28,1.9-3.82,2.42-1.54.52-3.23.78-5.07.78-1.58,0-3.05-.19-4.4-.58-1.35-.39-2.53-.98-3.54-1.77-1.01-.79-1.8-1.78-2.37-2.96-.58-1.18-.86-2.55-.86-4.1v-2.81c0-1.55.29-2.92.86-4.1.58-1.18,1.37-2.17,2.37-2.96,1.01-.79,2.19-1.38,3.54-1.77,1.35-.39,2.82-.58,4.4-.58,1.96,0,3.73.3,5.31.89,1.58.59,2.88,1.49,3.89,2.7h6.13v-3.06h7.17v22.01Zm-23.09,17.48c-1.27,0-2.43-.2-3.5-.6-1.06-.4-1.99-.97-2.76-1.68-.78-.72-1.38-1.58-1.81-2.59-.43-1.01-.65-2.13-.65-3.37s.22-2.36.65-3.37c.43-1.01,1.04-1.87,1.81-2.59.78-.72,1.7-1.28,2.76-1.68,1.06-.4,2.23-.6,3.5-.6h15.32c1.27,0,2.43.2,3.5.6,1.06.4,1.99.96,2.76,1.68.78.72,1.38,1.58,1.81,2.59.43,1.01.65,2.13.65,3.37s-.22,2.36-.65,3.37c-.43,1.01-1.04,1.87-1.81,2.59-.78.72-1.7,1.28-2.76,1.68-1.07.4-2.23.6-3.5.6h-15.32Zm4.62-30.04c0-1.41-.37-2.47-1.1-3.19-.73-.72-1.7-1.08-2.91-1.08s-2.18.36-2.91,1.08c-.73.72-1.1,1.78-1.1,3.19v1.68c0,1.41.37,2.48,1.1,3.19.73.72,1.71,1.08,2.91,1.08s2.18-.36,2.91-1.08c.73-.72,1.1-1.78,1.1-3.19v-1.68Zm8.46,24.35c2.53,0,3.8-.85,3.8-2.55s-1.27-2.55-3.8-2.55h-10.88c-2.5,0-3.76.85-3.76,2.55,0,.89.32,1.54.97,1.94.65.4,1.58.6,2.78.6h10.88Zm2.85-21.58v-3.45h-4.14v3.45h4.14Z"/>
        <path class="cls-8" d="m287.56,478.39h-14.55v12.69h-7.6v-12.69h-14.55v-5.61h36.69v5.61Zm-.52-7.34h-7.42l-4.45-12.13c-.14-.43-.35-.77-.63-1.01-.27-.24-.74-.37-1.4-.37h-7.86c-.66,0-1.13.12-1.4.37-.27.24-.48.58-.63,1.01l-4.45,12.13h-7.42l5.18-13.86c.35-.92.69-1.71,1.04-2.37.35-.66.78-1.21,1.32-1.64.53-.43,1.2-.75,2.01-.95.81-.2,1.83-.3,3.06-.3h10.45c1.24,0,2.26.1,3.06.3.81.2,1.47.52,2.01.95.53.43.97.98,1.32,1.64.35.66.69,1.45,1.04,2.37l5.18,13.86Z"/>
        <path class="cls-8" d="m326.67,488.49h-36.69v-5.61h5.74v-13.3h7.17v13.3h3.54v-13.3h7.17v13.3h13.08v5.61Zm-3.41-12.17h-7.17l1.29-17.35c.09-.81-.32-1.21-1.21-1.21h-23.91v-5.61h30.35c.75,0,1.32.22,1.71.65.39.43.55,1.01.5,1.73l-1.55,21.8Z"/>
        <path class="cls-8" d="m173.82,543.38h-7.12v-30.26h-6.04v-5.61h11.44c1.15,0,1.73.58,1.73,1.73v34.14Z"/>
        <path class="cls-8" d="m205.76,543.38h-7.12v-7.29h-14.46c-1.73,0-2.59-.86-2.59-2.59v-2.33c0-.57.04-1.02.13-1.34.09-.32.27-.69.56-1.12l13.99-21.19h9.5v22.32h3.67v6.26h-3.67v7.29Zm-7.12-13.55v-15.02l-9.8,15.02h9.8Z"/>
        <path class="cls-8" d="m239,533.41c0,1.47-.22,2.82-.65,4.06-.43,1.24-1.06,2.31-1.9,3.22-.84.91-1.87,1.61-3.11,2.12-1.24.5-2.66.75-4.27.75h-5.18c-1.61,0-3.04-.25-4.27-.75-1.24-.5-2.27-1.21-3.11-2.12-.83-.91-1.47-1.98-1.9-3.22-.43-1.24-.65-2.59-.65-4.06v-15.93c0-1.47.22-2.82.65-4.06.43-1.24,1.06-2.31,1.9-3.22.83-.91,1.87-1.61,3.11-2.11,1.24-.5,2.66-.76,4.27-.76h5.18c1.61,0,3.04.25,4.27.76,1.24.5,2.27,1.21,3.11,2.11.83.91,1.47,1.98,1.9,3.22.43,1.24.65,2.59.65,4.06v15.93Zm-11.01,3.89c1.41,0,2.41-.38,3-1.14.59-.76.88-1.75.88-2.96v-15.5c0-1.21-.3-2.19-.88-2.96-.59-.76-1.59-1.14-3-1.14h-3.02c-1.41,0-2.41.38-3,1.14-.59.76-.88,1.75-.88,2.96v15.5c0,1.21.29,2.2.88,2.96.59.76,1.59,1.14,3,1.14h3.02Z"/>
        <path class="cls-8" d="m280.78,533.24h-14.55v12.69h-7.6v-12.69h-14.55v-5.61h36.69v5.61Zm-1.29-7.34h-7.68l-5.4-11.96c-.23-.52-.48-.91-.73-1.16-.26-.26-.69-.39-1.29-.39h-3.97c-.58,0-.99.14-1.25.41-.26.27-.5.66-.73,1.14l-5.57,11.96h-7.68l6.3-13.51h-5.09v-5.61h32.07s0,5.61,0,5.61h-5.09l6.13,13.51Z"/>
        <path class="cls-8" d="m309.23,529.14h-22.58v-22.36h7.17v16.58h15.41v5.78Zm10.92,16.71h-31.21v-14.68h7.17v8.63h24.04v6.04Zm-.26-10.92h-7.17v-13.99h-10.88v-5.05h10.88v-2.2h-10.88v-5.05h10.88v-2.07h7.17v28.36Z"/>
        <path class="cls-8" d="m357.4,543.08h-7.34l5.01-29.52c.06-.4.03-.67-.09-.8-.12-.13-.37-.19-.78-.19h-12.91v-5.78h19.94c.72,0,1.22.18,1.51.54.29.36.37.87.26,1.53l-5.61,34.23Zm17.14,2.85h-7.17v-39.37h7.17v39.37Z"/>
        <path class="cls-8" d="m405.14,526.81h-22.58v-20.03h7.17v14.24h15.41v5.79Zm10.66,14.93c0,1.53-.32,2.6-.95,3.24-.63.63-1.71.95-3.24.95h-26.76v-13.43c0-1.29.22-2.16.65-2.59.43-.43,1.3-.65,2.59-.65h27.71v12.47Zm-7.17-1.6v-5.18h-16.62v5.18h16.62Zm7.17-12.43h-7.17v-8.29h-10.88v-4.83h10.88v-1.9h-10.88v-4.83h10.88v-1.29h7.17v21.15Z"/>
      </g>
      <rect class="cls-8" x="429.84" y="521.41" width="188.66" height="6.24"/>
    </g>
    <path class="cls-8" d="m546.82,452.01l-2.29,1.07c-2.3,1.06-3.84,1.37-4.8.17-1.05-1.31-.52-3.2,1.4-4.73,1.94-1.55,4.07-1.77,5.61-.1l3.55-2.83c-3.12-3.69-7.4-3.5-11.65-.1-4.3,3.41-5.16,7.47-2.6,10.7,2.34,2.92,5.81,2.66,9.38.95l1.89-.87c1.79-.87,3.56-1.35,4.56-.06.92,1.18.56,2.85-1.29,4.32-1.79,1.42-3.54,1.49-4.8.21l-3.5,2.79c2.53,3.07,6.82,3.19,10.72.08,3.85-3.07,4.98-7.45,2.42-10.63-2.05-2.58-5.06-2.61-8.6-.97Z"/>
    <g>
      <path class="cls-1" d="m403.81,110.14c2.75-.3,3.98-1.57,3.72-3.82-.23-2.26-1.71-3.34-4.46-3.05l-3.28.36.75,6.87,3.28-.36Z"/>
      <path class="cls-1" d="m461.92,120.6c3.4.67,6.17-1.44,7.1-6.15.97-4.72-.78-7.72-4.17-8.42-3.43-.67-6.19,1.42-7.14,6.15-.95,4.71.78,7.72,4.21,8.43Z"/>
      <path class="cls-1" d="m309.22,157.91c2.04-1.63,1.77-4.63-1.48-8.68-3.19-4.03-6.12-5.01-8.16-3.4-2.02,1.63-1.71,4.69,1.49,8.71,3.21,4.08,6.09,5,8.14,3.37Z"/>
      <polygon class="cls-1" points="285.7 173.95 290.08 169.44 283.17 162.72 283.02 162.87 285.57 173.82 285.7 173.95"/>
      <polygon class="cls-1" points="377.84 108.97 377.69 109 377 118.05 382.62 116.68 377.84 108.97"/>
      <polygon class="cls-1" points="614.95 365.83 607.64 360.45 605.82 365.95 614.9 365.98 614.95 365.83"/>
      <path class="cls-1" d="m622.79,299.76c2.27-.07,3.45-1.46,3.36-4.23l-.12-3.3-6.9.25.12,3.3c.1,2.77,1.28,4.08,3.54,3.98Z"/>
      <path class="cls-1" d="m585.3,412.26c-3.89-2.83-7.36-2.51-9.43.31-2.03,2.82-1.27,6.22,2.64,9.04,3.9,2.85,7.36,2.51,9.41-.29,2.05-2.84,1.29-6.23-2.62-9.06Z"/>
      <path class="cls-4" d="m480.76,201.6c-35.56,0-64.49,28.93-64.49,64.49v47.96s0,10.25,0,10.25c0,35.56,28.93,64.49,64.49,64.49,35.56,0,64.49-28.93,64.49-64.49v-35.72s0-22.49,0-22.49c0-35.56-28.93-64.49-64.49-64.49Zm33.2,69.69v53.01c0,18.31-14.89,33.2-33.2,33.2s-33.2-14.89-33.2-33.2v-58.21c0-18.31,14.89-33.2,33.2-33.2s33.2,14.89,33.2,33.2v5.2Z"/>
      <path class="cls-7" d="m307.63,413.53c-1.77-1.89-3.51-3.8-5.2-5.77,1.66,1.98,3.4,3.9,5.2,5.77Z"/>
      <path class="cls-4" d="m300.74,405.78h41.25v35.63c9.83,6.75,22.13,11.93,31.29,14.55v-50.18h29.19v-31.29h-29.19v-80.71h-31.29v80.71h-51.89l26.38-49.2,45.58-85h-35.5l-33.64,62.75-23.3,43.45s11.5,34.77,31.13,59.3h0Z"/>
      <path class="cls-9" d="m300.65,405.78c.56.68,1.2,1.3,1.78,1.97-.56-.66-1.15-1.3-1.69-1.97h-.09Z"/>
      <path class="cls-9" d="m307.63,413.53c10.13,10.77,21.64,20.21,34.37,27.89h0s-.03-.02-.04-.03c-11.8-8.12-24.04-17.15-34.33-27.85Z"/>
      <path class="cls-6" d="m300.74,405.78c.54.67,1.13,1.31,1.69,1.97,1.68,1.97,3.42,3.89,5.2,5.77,10.29,10.7,22.52,19.74,34.33,27.85.01,0,.03.02.04.03v-35.63h-41.25Z"/>
      <path class="cls-5" d="m480.76,232.89c-18.31,0-33.2,14.89-33.2,33.2v15.03c5.32-3.48,12.17-7.12,19.94-9.29,0,0,17.24-6.22,37.69-2.51,0,0,3.5.45,8.77,1.97v-5.2c0-18.31-14.89-33.2-33.2-33.2Z"/>
      <path class="cls-5" d="m561.9,388.87s-1.43,2.52-2.82,4.73c17.6-25.89,27.94-57.11,27.95-90.77,0-89.3-72.4-161.69-161.69-161.69-55.62,0-104.68,28.1-133.77,70.86-.36.53-.67,1.09-1.02,1.63-4.06,6.64-12.96,23.77-12.23,45.51,0,0-.19,16.42,8.75,34.1,1.34,2.66,2.88,5.35,4.67,8.02,0,0,.39.65,1.18,1.78l33.64-62.75h35.5l-45.58,85c6.41,4.03,14.08,7.57,23.01,9.63,0,0,.89.29,2.51.68v-41.82h31.29v42.56c2.82-.5,5.75-1.18,8.74-2.08,0,0,18.93-4.77,34.25-20.21v-47.96c0-35.56,28.93-64.49,64.49-64.49s64.49,28.93,64.49,64.49v22.49c3.85,3.42,10.98,10.54,16.73,20.54,2.06,3.58,3.95,7.51,5.44,11.8,0,0,7.52,18.74,4.31,37.98,0,0-1.2,15.83-9.83,29.96Z"/>
      <path class="cls-6" d="m316.48,325.29l-26.38,49.2h51.89v-38.89c-1.62-.39-2.51-.68-2.51-.68-8.93-2.06-16.59-5.6-23.01-9.63Z"/>
      <path class="cls-6" d="m467.5,271.83c-7.77,2.17-14.62,5.81-19.94,9.29v43.18c0,18.31,14.89,33.2,33.2,33.2s33.2-14.89,33.2-33.2v-53.01c-5.28-1.53-8.77-1.97-8.77-1.97-20.44-3.71-37.69,2.51-37.69,2.51Z"/>
      <path class="cls-6" d="m291.73,301.25c-1.79-2.67-3.33-5.36-4.67-8.02-8.93-17.68-8.75-34.1-8.75-34.1-.73-21.74,8.18-38.87,12.23-45.51-16.96,25.58-26.9,56.22-26.9,89.21,0,15.12,2.08,29.76,5.97,43.64l23.3-43.45c-.79-1.13-1.18-1.78-1.18-1.78Z"/>
      <path class="cls-9" d="m290.55,213.63c.35-.53.66-1.1,1.02-1.63-.28.43-.64,1-1.02,1.63Z"/>
      <path class="cls-6" d="m567.42,320.93c-1.49-4.29-3.38-8.22-5.44-11.8-5.75-10.01-12.88-17.12-16.73-20.55v35.72c0,35.56-28.93,64.49-64.49,64.49s-64.49-28.93-64.49-64.49v-10.25c-15.31,15.44-34.25,20.21-34.25,20.21-2.99.9-5.91,1.57-8.74,2.08v38.15h29.19v31.29h-29.19v50.18c16.33,5.55,33.84,8.57,52.06,8.57,54.21,0,102.15-26.71,131.49-67.65l.08-.2c.08-.07.17-.18.28-.31.43-.61.88-1.21,1.3-1.83.21-.31.39-.63.6-.94,1.39-2.21,2.82-4.73,2.82-4.73,8.62-14.13,9.82-29.96,9.82-29.96,3.21-19.24-4.31-37.98-4.31-37.98Z"/>
      <path class="cls-9" d="m559.09,393.61c-.21.31-.39.64-.6.94.2-.3.4-.62.6-.94Z"/>
      <path class="cls-6" d="m254.91,374.49h-14.74s0-214.42,0-214.42c0-1.46-1.19-2.65-2.65-2.65s-2.65,1.19-2.65,2.65v214.42s-7.47,0-7.47,0v-107.11c-6.47-5.53-18.39-9.37-31.29-10.34v117.45s-34.41,0-34.41,0v31.29h76.5l16.7-31.29Z"/>
      <polygon class="cls-8" points="266.27 181.02 266.34 180.92 280.63 192 283.51 188.28 265.71 174.48 263 177.97 262.39 184.55 265.66 187.08 266.27 181.02"/>
      <path class="cls-8" d="m285.1,179.96l7.64-7.85,2.85,2.78,3.1-3.19-2.86-2.78,2-2.05-2.7-2.62-2,2.05-10.59-10.31-4.1,4.22,4,17.17,2.65,2.58Zm-1.93-17.25l6.91,6.73-4.38,4.51-.13-.13-2.55-10.94.15-.16Z"/>
      <path class="cls-8" d="m311.62,160.92c4.4-3.51,4.48-8.9-.14-14.68-4.58-5.75-9.9-6.9-14.28-3.41-4.39,3.5-4.45,8.93.13,14.68,4.59,5.76,9.87,6.93,14.29,3.41Zm-12.04-15.1c2.04-1.61,4.96-.63,8.16,3.4,3.25,4.05,3.52,7.06,1.48,8.68-2.04,1.63-4.93.71-8.14-3.37-3.21-4.03-3.52-7.08-1.49-8.71Z"/>
      <polygon class="cls-8" points="337.23 143.39 341.35 141.18 337.55 134.1 337.94 117.43 333.3 119.92 333.34 130.92 333.15 131.02 323.97 124.92 319.34 127.41 333.44 136.31 337.23 143.39"/>
      <polygon class="cls-8" points="367.06 130.07 365.68 126.48 355.9 130.24 353.93 125.14 362.95 121.66 361.57 118.06 352.54 121.54 350.57 116.43 360.33 112.67 358.94 109.08 344.84 114.51 352.93 135.52 367.06 130.07"/>
      <path class="cls-8" d="m376.71,121.87l7.92-1.94,2.88,4.65,4.87-1.19-12.91-20.05-5.84,1.43-2.24,23.75,4.9-1.2.42-5.45Zm.98-12.87l.15-.03,4.78,7.71-5.62,1.38.69-9.05Z"/>
      <path class="cls-8" d="m401.81,122.22l-.86-7.95,3.54-.39,5.15,7.49,5.13-.56-5.71-8.19c2.43-1.38,3.6-3.76,3.27-6.82-.48-4.44-3.72-6.98-8.81-6.43l-8.79.95,2.43,22.4,4.64-.51Zm1.26-18.95c2.76-.28,4.23.79,4.46,3.05.26,2.24-.96,3.52-3.72,3.82l-3.28.36-.75-6.87,3.28-.36Z"/>
      <path class="cls-8" d="m427.71,117.17c-2.49-.03-4.28-1.21-4.41-3.48l-4.54-.06c.07,4.84,3.51,7.41,8.96,7.47,5.49.09,8.74-2.52,8.81-6.64.03-3.75-2.82-5.75-6.67-6.69l-2.02-.52c-1.94-.46-3.61-1.22-3.57-2.85.03-1.5,1.37-2.57,3.74-2.54,2.29.03,3.69,1.09,3.86,2.88l4.48.06c0-3.98-3.26-6.8-8.25-6.87-4.94-.07-8.58,2.61-8.62,6.71-.04,3.3,2.27,5.23,6.05,6.21l2.45.62c2.45.64,3.84,1.37,3.82,2.92-.02,1.68-1.63,2.81-4.09,2.78Z"/>
      <path class="cls-8" d="m461.11,124.66c5.84,1.17,11.14-2.06,12.58-9.27,1.45-7.21-2.19-12.24-8.03-13.41-5.89-1.18-11.17,2.05-12.62,9.26-1.44,7.18,2.17,12.24,8.06,13.42Zm-3.39-12.48c.95-4.73,3.7-6.82,7.14-6.15,3.4.7,5.14,3.7,4.17,8.42-.93,4.71-3.7,6.82-7.1,6.15-3.43-.71-5.15-3.72-4.21-8.43Z"/>
      <polygon class="cls-8" points="484.26 120.71 492.99 123.64 494.22 119.98 485.49 117.05 487.23 111.86 496.88 115.09 498.11 111.43 484.03 106.71 476.86 128.08 481.29 129.56 484.26 120.71"/>
      <polygon class="cls-8" points="550.59 156.48 558.25 163.34 560.7 160.6 553.03 153.74 550.59 156.48"/>
      <path class="cls-8" d="m607.34,292.91l7.99-.29.13,3.56-7.84,4.59.19,5.17,8.58-5.11c1.2,2.52,3.49,3.86,6.56,3.75,4.46-.16,7.23-3.2,7.05-8.32l-.32-8.83-22.51.82.17,4.66Zm18.69-.68l.12,3.3c.08,2.77-1.09,4.17-3.36,4.23-2.25.1-3.44-1.21-3.54-3.98l-.12-3.3,6.9-.25Z"/>
      <polygon class="cls-8" points="607.57 310.63 606.31 325.74 610.15 326.07 611.03 315.61 616.49 316.07 615.68 325.72 619.53 326.04 620.34 316.39 625.8 316.85 624.92 327.27 628.77 327.6 630.03 312.52 607.57 310.63"/>
      <polygon class="cls-8" points="602.69 345.63 606.48 346.38 608.35 336.84 626.69 340.44 627.59 335.86 605.47 331.52 602.69 345.63"/>
      <path class="cls-8" d="m600.15,354.94l4.41,3.24-2.56,7.75-5.47-.02-1.57,4.76,23.85-.32,1.89-5.71-18.96-14.5-1.59,4.79Zm7.49,5.51l7.31,5.38-.05.15-9.08-.03,1.82-5.5Z"/>
      <polygon class="cls-8" points="608.51 385.79 591.56 377.93 589.61 382.14 606.56 389.99 603.65 396.27 607.16 397.89 614.92 381.13 611.42 379.51 608.51 385.79"/>
      <rect class="cls-8" x="590.27" y="389.23" width="4.67" height="22.54" transform="translate(-51.38 711.73) rotate(-59.85)"/>
      <path class="cls-8" d="m588.1,408.4c-5.94-4.31-12.05-3.13-15.58,1.73-3.51,4.83-2.77,11,3.19,15.33,5.96,4.33,12.06,3.12,15.57-1.71,3.53-4.86,2.79-11.03-3.17-15.35Zm-.18,12.92c-2.05,2.8-5.51,3.14-9.41.29-3.9-2.82-4.67-6.22-2.64-9.04,2.07-2.83,5.53-3.14,9.43-.31,3.91,2.84,4.67,6.22,2.62,9.06Z"/>
      <polygon class="cls-8" points="559.63 426.45 569.91 436.41 569.78 436.55 552.61 433.69 549.79 436.6 565.98 452.28 569.21 448.95 558.92 438.99 559.07 438.83 576.2 441.73 579.06 438.78 562.88 423.1 559.63 426.45"/>
      <path class="cls-8" d="m546.77,452.03l-2.29,1.07c-2.3,1.06-3.84,1.37-4.8.17-1.05-1.31-.52-3.2,1.4-4.73,1.94-1.55,4.07-1.77,5.61-.1l3.55-2.83c-3.12-3.69-7.4-3.5-11.65-.1-4.3,3.41-5.16,7.47-2.6,10.7,2.35,2.92,5.82,2.66,9.38.95l1.89-.87c1.79-.87,3.56-1.35,4.57-.06.92,1.18.56,2.85-1.29,4.32-1.79,1.42-3.54,1.49-4.8.21l-3.5,2.79c2.53,3.08,6.82,3.19,10.72.08,3.85-3.07,4.98-7.45,2.42-10.64-2.05-2.58-5.06-2.61-8.61-.97Z"/>
      <polygon class="cls-4" points="228.06 159.25 228.05 159.24 228.06 159.25 228.06 159.25"/>
      <polygon class="cls-4" points="228.06 159.25 228.05 159.24 228.05 159.24 228.06 159.25"/>
      <path class="cls-4" d="m228.06,159.25h0c-2.64.1-5.25.4-7.81.88,2.56-.48,5.17-.78,7.81-.88Z"/>
    </g>
    <path class="cls-8" d="m511.69,143.09c4.93,2.64,9.8,1.48,12.11-2.88l6.87-12.93-4.15-2.21-6.69,12.61c-1.21,2.31-3.71,3.09-6.21,1.79-2.46-1.32-3.2-3.84-2-6.14l6.69-12.61-4.13-2.19-6.87,12.94c-2.32,4.36-.59,9.02,4.37,11.63Z"/>
    <polygon class="cls-8" points="528.98 153.12 532.72 147.88 536.31 146.92 535.99 158.13 540.55 161.39 540.87 146.32 553.57 143 548.98 139.72 536.52 143.1 536.27 142.92 542.07 134.79 538.27 132.07 525.18 150.41 528.98 153.12"/>
    <path class="cls-4" d="m228.11,159.12c-6.8-4.16-13.6-6.84-20.4-8.4-.07-.02-.15-.03-.22-.05-.03,0-.06-.02-.09-.02-15.97-3.57-31.93-.93-47.9,3.36-.08.02-.16.04-.24.07h0c-2.22.6-4.45,1.24-6.67,1.89q0,.64,0,0c-6.99,2.05-13.99,4.29-20.98,6.34h0c-2.27.67-4.55,1.31-6.82,1.93,0,0,0,0,0,0-.08.02-.16.04-.24.06-15.97,4.29-31.93,6.93-47.9,3.37-.06,0-.11-.02-.17-.03-.06-.01-.12-.03-.18-.04-2.44-.56-4.88-1.26-7.32-2.13-4.34-1.54-8.68-3.59-13.02-6.24h0v.03c-.02,3.99-.05,26.88-.05,34.25v.24c.01,2.23.02,4.46.03,6.69,0,.05,0,.09,0,.14,0,6.89,0,13.79,0,20.68v.14c0,2.27-.01,38.49-.01,41.19h0s.01,0,.02,0c6.88,4.21,13.76,6.91,20.63,8.46,15.97,3.59,31.95.97,47.92-3.32,2.36-.63,4.72-1.3,7.08-1.99,6.99-2.05,13.99-4.29,20.98-6.34,2.22-.65,4.44-1.27,6.66-1.87.08-.02.16-.04.24-.06,16.01-4.3,32.01-6.94,48.02-3.33,2.42.54,4.85,1.22,7.27,2.05,0,0,0,0-.01-.01h.01c4.35,1.53,8.71,3.56,13.06,6.2,0,0,0,0,.01.01.09.05.17.11.26.16,0-4.01,0-8.02,0-12.03h0c0-4.64,0-9.28,0-13.92,0-2.54,0-5,0-8.19,0-2.36,0-4.71,0-7.07,0-6.99,0-13.98,0-20.96h0c0-2.31,0-4.62,0-6.92,0-7.37,0-14.74,0-22.11,0-1.33,0-2.66,0-3.99,0-2.74,0-5.48,0-8.22,0,0,0,0-.01,0Z"/>
    <path class="cls-6" d="m55.92,171.4c0,7.37,0,14.74,0,22.11,12.29,7.53,26.52,10.52,40.85,10.14-15.82-8.35-28.56-17.35-40.85-32.25Z"/>
    <path class="cls-6" d="m124.55,164.29c-15.97,4.29-31.93,6.93-47.9,3.37-.06,0-.11-.02-.17-.03-.06-.01-.12-.03-.18-.04,16.08,13.75,32.16,21.18,48.24,26.93,0-10.08,0-20.15,0-30.23Z"/>
    <path class="cls-5" d="m124.47,198.63c-18.5-6.47-36.99-15.18-55.49-33.17-4.34-1.54-8.68-3.59-13.02-6.24h0v.03c18.18,22.54,27.75,28.6,56.43,42.23,4.65-.85,7.42-1.6,12.07-2.85Z"/>
    <path class="cls-6" d="m228.11,193.45c0-7.37,0-14.74,0-22.11-12.29-.16-24.58,4.53-36.88,11.97,12.29-.08,24.58,2.61,36.87,10.13Z"/>
    <path class="cls-6" d="m207.71,150.73c-.07-.02-.15-.03-.22-.05-.03,0-.06-.02-.09-.02-15.97-3.57-31.93-.93-47.9,3.36,0,9.69,0,19.38,0,29.07,16.3-15.96,32.14-26.34,48.21-32.35Z"/>
    <path class="cls-5" d="m184.68,183.46c14.48-9.82,28.96-16.32,43.43-16.11,0-2.74,0-5.48,0-8.22,0,0,0,0-.01,0-19.13-.32-38.26,11.08-57.39,26.39,4.65-.95,9.31-1.67,13.96-2.05Z"/>
    <path class="cls-5" d="m99.33,238.28c-14.46,9.81-28.93,16.3-43.39,16.09,0,.04,0,.07,0,.11,0,2.7,0,5.41,0,8.11h0c19.12.32,38.24-11.07,57.35-26.36-4.65.95-9.31,1.67-13.96,2.05Z"/>
    <path class="cls-6" d="m55.94,228.47v22.08c12.28.15,24.55-4.53,36.83-11.96-12.28.07-24.55-2.61-36.83-10.12Z"/>
    <path class="cls-5" d="m159.54,223.28c18.41,6.44,36.81,15.08,55.21,32.89,4.36,1.52,8.72,3.56,13.07,6.2-14.45-21.16-39.95-35.86-57.25-41.74-4.65.86-6.39,1.39-11.04,2.65Z"/>
    <path class="cls-5" d="m131.58,265.74c6.99-2.05,13.99-4.29,20.98-6.34,0-13.74,0-27.48.01-41.22,25.18-7.37,50.35-12.26,75.53,3.16,0-6.99,0-13.98,0-20.96-25.18-15.42-50.35-10.53-75.53-3.16,0-13.75,0-27.49.01-41.24-6.99,2.05-13.99,4.29-20.98,6.34,0,13.75,0,27.49-.01,41.24-25.22,7.4-50.44,12.32-75.66-3.12,0,.05,0,.1,0,.14,0,6.89,0,13.79,0,20.68v.14c25.22,15.44,50.43,10.51,75.65,3.12,0,13.74,0,27.48-.01,41.22Z"/>
    <path class="cls-6" d="m124.51,238.83c-15.98,13.92-31.95,26.18-47.93,32.23,15.97,3.59,31.95.97,47.92-3.32,0-9.64,0-19.27,0-28.91Z"/>
    <path class="cls-6" d="m159.47,227.4c0,10.02,0,20.04,0,30.06,16.01-4.3,32.01-6.94,48.02-3.33-16-13.62-32.01-21.01-48.01-26.73Z"/>
    <path class="cls-6" d="m228.09,248.84c0-7.37,0-13.07,0-20.44-12.29-7.52-29.03-10.45-41.32-10.37,26.99,14.58,33.58,20.71,41.32,30.81Z"/>
    <path class="cls-1" d="m580.49,200.41c1.99,2.85,5.45,3.26,9.4.52,3.98-2.73,4.82-6.11,2.86-8.97-2-2.88-5.44-3.29-9.42-.54-3.96,2.73-4.82,6.11-2.84,9Z"/>
    <polygon class="cls-1" points="622.04 261.53 622 261.38 612.97 260.56 614.26 266.2 622.04 261.53"/>
    <polygon class="cls-8" points="560.95 180.39 565.84 176.19 569.56 176.12 566.57 186.93 570.22 191.19 574.13 176.63 587.27 176.44 583.6 172.16 570.68 172.45 570.48 172.22 578.07 165.71 575.03 162.17 557.91 176.84 560.95 180.39"/>
    <path class="cls-8" d="m577.46,202.42c3.28,4.99,9.31,6.48,15.47,2.44,6.16-4.05,7.18-10.18,3.91-15.16-3.3-5.03-9.33-6.51-15.49-2.47-6.13,4.03-7.19,10.17-3.89,15.19Zm6.5-11.21c4.04-2.65,7.47-2.16,9.41.76,1.9,2.91.99,6.27-3.06,8.91-4.02,2.66-7.47,2.17-9.39-.73-1.91-2.94-.98-6.29,3.04-8.93Z"/>
    <path class="cls-8" d="m588.14,220.17l7.21-3.47,1.55,3.21-5.34,7.36,2.24,4.66,5.82-8.12c2.11,1.84,4.74,2.14,7.52.8,4.03-1.94,5.34-5.84,3.12-10.46l-3.84-7.97-20.31,9.78,2.03,4.21Zm16.86-8.12l1.43,2.97c1.19,2.5.67,4.26-1.39,5.23-2.03.99-3.64.27-4.84-2.23l-1.43-2.97,6.23-3Z"/>
    <polygon class="cls-8" points="600.38 250.63 604.02 249.38 600.63 239.47 605.81 237.7 608.94 246.84 612.59 245.6 609.45 236.45 614.63 234.68 618.01 244.56 621.66 243.31 616.77 229.01 595.47 236.31 600.38 250.63"/>
    <path class="cls-8" d="m602.79,259.98l5.43.61,1.65,7.99-4.75,2.71,1.01,4.91,20.5-12.16-1.21-5.89-23.65-3.11,1.02,4.94Zm18.25,2.06l.03.15-7.88,4.5-1.17-5.67,9.01,1.02Z"/>
  </g>
  <g class="cls-2">
    <path class="cls-3" d="m-1631.82-2936.7c-905.12,98.99-1638.73,690.03-1933.13,1451.88-36.62,94.77-15.07,243.96-2.4,341.07,18.81,144.24,64.51,285.42,141.06,411.13,185.78,305.11,534,501.88,899.51,533.76,424.35,37.01,778.62-162.13,1034.94-476.62,17.64-21.64,34.76-43.67,51.43-66,114.14-152.97,217.52-320.87,375.6-437.23,164.65-121.2,379.28-184.78,584.41-198.18,151.06-9.87,302.86,9.87,446.89,53.18C678.08-1109.61,832.29-433.03,668.41,132.21c188.74-349.09,256.32-758,210.75-1154.23-136.77-1189.27-1266.64-2050.77-2510.98-1914.68Z"/>
  </g>
</svg>