<?xml version="1.0" encoding="UTF-8"?>
<svg id="Layer_1" data-name="Layer 1" xmlns="http://www.w3.org/2000/svg" viewBox="0 0 146.94 97.84">
  <defs>
    <style>
      .cls-1 {
        fill: #e00e21;
      }
    </style>
  </defs>
  <path class="cls-1" d="m123.02,0H29.53h0C23.18,0,17.1,2.52,12.61,7.01c-4.49,4.48-7.01,10.57-7.01,16.91v50.01h0c0,6.34,2.52,12.43,7.01,16.91,4.48,4.49,10.57,7.01,16.91,7.01h93.49,0c6.34,0,12.43-2.52,16.91-7.01,4.49-4.48,7.01-10.57,7.01-16.91V23.92h0c0-6.34-2.52-12.43-7.01-16.91-4.48-4.49-10.57-7.01-16.91-7.01h0Zm-18.07,51.81l-42.4,21.74c-1.01.52-2.22.48-3.19-.11-.97-.59-1.57-1.65-1.57-2.78V27.18c0-1.14.6-2.19,1.57-2.78.97-.59,2.18-.63,3.19-.11l42.4,21.74c1.09.56,1.77,1.68,1.77,2.9s-.69,2.34-1.77,2.9v-.02Z"/>
</svg>