<?xml version="1.0" encoding="UTF-8"?>
<svg id="Layer_1" data-name="Layer 1" xmlns="http://www.w3.org/2000/svg" viewBox="0 0 224.57 224.56">
  <defs>
    <style>
      .cls-1, .cls-2 {
        fill: #fff;
      }

      .cls-2 {
        fill-rule: evenodd;
      }
    </style>
  </defs>
  <path class="cls-2" d="m185.52,0H39.06C17.52,0,0,17.51,0,39.05v146.45c0,21.53,17.52,39.05,39.06,39.05h146.46c21.53,0,39.05-17.52,39.05-39.05V39.06C224.57,17.51,207.05,0,185.52,0h0Zm24.4,185.5c0,13.46-10.94,24.41-24.4,24.41H39.06c-13.46,0-24.41-10.95-24.41-24.41V39.06c0-13.46,10.95-24.42,24.41-24.42h146.46c13.46,0,24.4,10.96,24.4,24.42v146.45Z"/>
  <path class="cls-1" d="m159.03,63.37h-93.49,0c-6.34,0-12.43,2.52-16.91,7.01-4.49,4.48-7.01,10.57-7.01,16.91v50.01h0c0,6.34,2.52,12.43,7.01,16.91,4.48,4.49,10.57,7.01,16.91,7.01h93.49,0c6.34,0,12.43-2.52,16.91-7.01,4.49-4.48,7.01-10.57,7.01-16.91v-50.01h0c0-6.34-2.52-12.43-7.01-16.91-4.48-4.49-10.57-7.01-16.91-7.01h0Zm-18.07,51.81l-42.4,21.74c-1.01.52-2.22.48-3.19-.11-.97-.59-1.57-1.65-1.57-2.78v-43.49c0-1.14.6-2.19,1.57-2.78.97-.59,2.18-.63,3.19-.11l42.4,21.74c1.09.56,1.77,1.68,1.77,2.9s-.69,2.34-1.77,2.9v-.02Z"/>
</svg>